<?xml version="1.0" encoding="UTF-8"?>
<svg version="1.1" xmlns="http://www.w3.org/2000/svg" width="230" height="219">
<path d="M0 0 C75.9 0 151.8 0 230 0 C230 72.27 230 144.54 230 219 C154.1 219 78.2 219 0 219 C0 146.73 0 74.46 0 0 Z " fill="#FEFEFC" transform="translate(0,0)"/>
<path d="M0 0 C54.78 0 109.56 0 166 0 C166 4.62 166 9.24 166 14 C163 16 163 16 160.3125 15.625 C159.1678125 15.315625 159.1678125 15.315625 158 15 C158.06566162 15.68102783 158.13132324 16.36205566 158.19897461 17.0637207 C159.16044435 28.09192875 159.34899488 39.12419199 159.5625 50.1875 C159.58367889 51.22382568 159.60485779 52.26015137 159.62667847 53.32788086 C160.06304362 74.8863434 160.10107113 96.4381591 160 118 C165.28 118.33 170.56 118.66 176 119 C176 123.62 176 128.24 176 133 C179.63 133 183.26 133 187 133 C187 137.29 187 141.58 187 146 C190.63 146 194.26 146 198 146 C198 150.29 198 154.58 198 159 C122.1 159 46.2 159 -32 159 C-32 154.71 -32 150.42 -32 146 C-28.37 146 -24.74 146 -21 146 C-21 141.71 -21 137.42 -21 133 C-17.37 133 -13.74 133 -10 133 C-10 128.71 -10 124.42 -10 120 C-1.42 120 7.16 120 16 120 C16 119.34 16 118.68 16 118 C15.28972656 118.01160156 14.57945313 118.02320313 13.84765625 118.03515625 C12.92855469 118.04417969 12.00945313 118.05320312 11.0625 118.0625 C10.14597656 118.07410156 9.22945312 118.08570313 8.28515625 118.09765625 C6 118 6 118 5 117 C4.89907224 115.61111269 4.86917492 114.21701107 4.8671875 112.82446289 C4.86517334 111.90467148 4.86315918 110.98488007 4.86108398 110.03721619 C4.86567627 109.00528641 4.87026855 107.97335663 4.875 106.91015625 C4.87765869 105.81598892 4.88031738 104.72182159 4.88305664 103.59449768 C4.97029125 87.40964847 5.47355854 71.2304774 5.92712402 55.05267334 C6.05027159 50.63349084 6.16947595 46.21420191 6.2890625 41.79492188 C6.52229349 33.19650808 6.76008798 24.59822998 7 16 C13.6 16 20.2 16 27 16 C27.26525904 25.01704352 27.52676339 34.03417697 27.78230286 43.05150127 C27.90119757 47.24216455 28.02150956 51.43277539 28.14550781 55.62329102 C28.75982179 76.42384219 29.14641989 97.18905668 29 118 C35.93 118 42.86 118 50 118 C49.67 117.67 49.34 117.34 49 117 C48.89861378 114.9858695 48.86916935 112.96809569 48.8671875 110.95141602 C48.86517334 109.65163315 48.86315918 108.35185028 48.86108398 107.01268005 C48.86519606 105.57225385 48.86985073 104.13182912 48.875 102.69140625 C48.87621857 101.9600754 48.87743713 101.22874454 48.87869263 100.47525215 C48.91112525 83.71176577 49.38532308 66.96534 49.92712402 50.21185303 C50.05156596 46.32820157 50.17000052 42.44436633 50.2890625 38.56054688 C50.52043137 31.04017944 50.75856725 23.52005231 51 16 C57.6 16 64.2 16 71 16 C71.02505615 17.44955078 71.0501123 18.89910156 71.07592773 20.39257812 C71.17181207 25.89458533 71.27155081 31.39651767 71.37231445 36.8984375 C71.41499345 39.25649231 71.45669772 41.61456501 71.49731445 43.97265625 C71.72697348 57.26452678 72.06985506 70.53767388 72.66622925 83.81835938 C72.99782572 91.38563891 73.12359202 98.92458995 73.0625 106.5 C73.05798828 107.63179688 73.05347656 108.76359375 73.04882812 109.9296875 C73.03742927 112.61981675 73.01952479 115.30991745 73 118 C78.94 118 84.88 118 91 118 C86.71 117.67 82.42 117.34 78 117 C78 108.75 78 100.5 78 92 C78.33 92 78.66 92 79 92 C79 99.92 79 107.84 79 116 C81.97 116 84.94 116 88 116 C88.495 114.515 88.495 114.515 89 113 C89 113.99 89 114.98 89 116 C89.99 116 90.98 116 92 116 C91.99476318 115.31486328 91.98952637 114.62972656 91.98413086 113.92382812 C91.96318555 110.78256163 91.9502844 107.64130989 91.9375 104.5 C91.92912109 103.42234375 91.92074219 102.3446875 91.91210938 101.234375 C91.90888672 100.17734375 91.90566406 99.1203125 91.90234375 98.03125 C91.89710693 97.06767578 91.89187012 96.10410156 91.88647461 95.11132812 C92 92 92 92 92.48632812 88.58789062 C93.3670851 81.95637787 93.23846622 75.24157386 93.31640625 68.5625 C93.33701094 67.07177195 93.35800825 65.58104929 93.37937927 64.09033203 C93.43423734 60.1909423 93.48380453 56.29150306 93.53222656 52.39202881 C93.5827086 48.40323548 93.63825444 44.41451292 93.69335938 40.42578125 C93.80049647 32.61724764 93.90203768 24.80865468 94 17 C93.01 17 92.02 17 91 17 C91 17.99 91 18.98 91 20 C90.34 20 89.68 20 89 20 C89 19.01 89 18.02 89 17 C83.39 17 77.78 17 72 17 C72 16.67 72 16.34 72 16 C80.415 15.505 80.415 15.505 89 15 C87.36981934 15.00523682 85.73963867 15.01047363 84.06005859 15.01586914 C76.49838212 15.03807686 68.93670201 15.05297858 61.375 15.0625 C60.36238413 15.06378403 60.36238413 15.06378403 59.32931137 15.06509399 C39.53487119 15.08729308 19.77558017 14.96382288 0 14 C0 9.38 0 4.76 0 0 Z " fill="#FDFCF7" transform="translate(32,60)"/>
<path d="M0 0 C37.29 0 74.58 0 113 0 C110.02815016 2.97184984 107.82132753 4.3622882 104 6 C102.68 6 101.36 6 100 6 C100 6.66 100 7.32 100 8 C99.47535156 8.1959375 98.95070313 8.391875 98.41015625 8.59375 C92.60121704 10.83613585 86.94807048 13.35834548 81.3125 16 C80.60037354 16.33193359 79.88824707 16.66386719 79.15454102 17.00585938 C75.77758549 18.60165407 72.48562007 20.2595759 69.2578125 22.140625 C66.67245576 23.61620031 64.34313274 24.74999263 61.5625 25.75 C56.12189428 27.84446631 50.98015746 30.44010682 45.79711914 33.09472656 C41.5943506 35.23971019 37.34718034 37.15780923 33 39 C29.82508636 40.46409233 26.67053483 41.97169694 23.51757812 43.48242188 C19.74292941 45.26673059 15.98811654 46.76485143 12 48 C12.33 50.64 12.66 53.28 13 56 C25.87 56.495 25.87 56.495 39 57 C39 57.66 39 58.32 39 59 C36.69 59 34.38 59 32 59 C32 63.95 32 68.9 32 74 C66.32 74 100.64 74 136 74 C136 74.33 136 74.66 136 75 C131.05 75.33 126.1 75.66 121 76 C121 77.32 121 78.64 121 80 C121.66 80 122.32 80 123 80 C123 79.01 123 78.02 123 77 C123.99 77 124.98 77 126 77 C126.0232369 85.59754596 126.04097272 94.19507865 126.05181217 102.79264832 C126.05701626 106.78544225 126.06406868 110.77821459 126.07543945 114.77099609 C126.08635663 118.62892874 126.09229545 122.48684069 126.09487724 126.3447876 C126.09671564 127.81187261 126.10030541 129.27895658 126.10573006 130.74603271 C126.1311457 137.90869472 126.06811746 144.90493841 125 152 C124.86743481 154.00881191 124.7601268 156.01952399 124.68359375 158.03125 C124.64169922 159.08828125 124.59980469 160.1453125 124.55664062 161.234375 C124.51732422 162.31203125 124.47800781 163.3896875 124.4375 164.5 C124.37272461 166.16289062 124.37272461 166.16289062 124.30664062 167.859375 C124.20137786 170.57281506 124.09924154 173.28633417 124 176 C123.07316406 175.98839844 122.14632812 175.97679687 121.19140625 175.96484375 C119.39509766 175.95130859 119.39509766 175.95130859 117.5625 175.9375 C115.77005859 175.92009766 115.77005859 175.92009766 113.94140625 175.90234375 C111.11126659 175.66098208 111.11126659 175.66098208 110 177 C114.29 177 118.58 177 123 177 C123.33 177.66 123.66 178.32 124 179 C114.76 179 105.52 179 96 179 C96 178.67 96 178.34 96 178 C98.97 178 101.94 178 105 178 C104.93941406 176.75766602 104.87882812 175.51533203 104.81640625 174.23535156 C103.24556457 141.46818687 102.76017965 108.80209402 103 76 C96.4 76 89.8 76 83 76 C83.01160156 77.5571875 83.02320312 79.114375 83.03515625 80.71875 C83.10511323 95.0544654 82.90242172 109.35840006 82.5 123.6875 C82.00126095 141.46322417 81.88215443 159.21800993 82 177 C83.98 177.33 85.96 177.66 88 178 C88 178.33 88 178.66 88 179 C77.44 179 66.88 179 56 179 C56 178.67 56 178.34 56 178 C57.65 178 59.3 178 61 178 C60.97494385 177.37107849 60.9498877 176.74215698 60.92407227 176.09417725 C59.6026723 142.70935159 58.69029777 109.41342904 59 76 C52.4 76 45.8 76 39 76 C39.01160156 78.805 39.02320313 81.61 39.03515625 84.5 C39.09511365 103.35610849 39.05594439 122.17891191 38.35791016 141.0234375 C37.9239156 153.01860833 37.90286665 164.99863499 38 177 C41.3 177.33 44.6 177.66 48 178 C48 178.66 48 179.32 48 180 C39.42 180 30.84 180 22 180 C22 184.29 22 188.58 22 193 C18.37 193 14.74 193 11 193 C11 197.29 11 201.58 11 206 C7.37 206 3.74 206 0 206 C0 138.02 0 70.04 0 0 Z " fill="#FEFEFC" transform="translate(0,0)"/>
<path d="M0 0 C61.38 0 122.76 0 186 0 C186 4.29 186 8.58 186 13 C189.63 13 193.26 13 197 13 C197 17.29 197 21.58 197 26 C200.63 26 204.26 26 208 26 C208 30.29 208 34.58 208 39 C132.1 39 56.2 39 -22 39 C-22 34.71 -22 30.42 -22 26 C-18.37 26 -14.74 26 -11 26 C-11 21.71 -11 17.42 -11 13 C-7.37 13 -3.74 13 0 13 C0 8.71 0 4.42 0 0 Z " fill="#EE7902" transform="translate(22,180)"/>
<path d="M0 0 C3.20690585 0.95190577 6.06609598 2.23541547 9.0859375 3.6796875 C9.71443604 3.9785083 10.34293457 4.2773291 10.99047852 4.58520508 C12.41658288 5.26437482 13.84138641 5.94628026 15.26513672 6.63037109 C18.01623584 7.95127215 20.77162807 9.26297718 23.52734375 10.57421875 C39.54126858 18.20463822 39.54126858 18.20463822 45.203125 21.05078125 C47.97669262 22.43756506 50.752514 23.69829498 53.609375 24.8984375 C60.47140301 27.85752765 67.24456594 31.02928626 73.8984375 34.4296875 C78.0224796 36.52529195 82.22946031 38.23326778 86.5390625 39.90625 C89.10273276 40.96676108 91.350229 42.35194381 93.7109375 43.8046875 C96.68609584 45.1961306 99.6928538 46.50934439 102.7109375 47.8046875 C102.7109375 50.4446875 102.7109375 53.0846875 102.7109375 55.8046875 C34.7309375 55.8046875 -33.2490625 55.8046875 -103.2890625 55.8046875 C-103.2890625 53.1646875 -103.2890625 50.5246875 -103.2890625 47.8046875 C-100.76949507 46.53129268 -98.24847601 45.26092108 -95.7265625 43.9921875 C-95.02208984 43.63576172 -94.31761719 43.27933594 -93.59179688 42.91210938 C-89.21638388 40.71432128 -84.80163603 38.71068317 -80.2890625 36.8046875 C-77.88744797 35.71111881 -75.4917143 34.61007517 -73.1015625 33.4921875 C-72.1276355 33.03815552 -72.1276355 33.03815552 -71.1340332 32.57495117 C-67.04457315 30.65818894 -63.00186544 28.66624352 -58.9765625 26.6171875 C-55.54165762 24.87920774 -52.13558028 23.30007448 -48.5390625 21.9296875 C-42.56636907 19.62952401 -36.91866761 16.70022286 -31.21875 13.8046875 C-30.57647461 13.47984375 -29.93419922 13.155 -29.27246094 12.8203125 C-27.89403045 12.11446922 -26.52270263 11.39465162 -25.15722656 10.6640625 C-24.46081055 10.29796875 -23.76439453 9.931875 -23.046875 9.5546875 C-22.10932373 9.05195313 -22.10932373 9.05195313 -21.15283203 8.5390625 C-19.2890625 7.8046875 -19.2890625 7.8046875 -15.2890625 7.8046875 C-15.2890625 7.1446875 -15.2890625 6.4846875 -15.2890625 5.8046875 C-14.60199219 5.53914062 -13.91492188 5.27359375 -13.20703125 5 C-12.30597656 4.64679687 -11.40492187 4.29359375 -10.4765625 3.9296875 C-9.58324219 3.58164062 -8.68992187 3.23359375 -7.76953125 2.875 C-0.92396168 -0.07883632 -0.92396168 -0.07883632 0 0 Z " fill="#ED7801" transform="translate(115.2890625,0.1953125)"/>
<path d="M0 0 C6.6 0 13.2 0 20 0 C20.02505615 1.44955078 20.0501123 2.89910156 20.07592773 4.39257812 C20.17181207 9.89458533 20.27155081 15.39651767 20.37231445 20.8984375 C20.41499345 23.25649231 20.45669772 25.61456501 20.49731445 27.97265625 C20.7271685 41.27581366 21.06990407 54.56041915 21.66622925 67.85241699 C21.99034294 75.24173994 22.12447211 82.60283336 22.0625 90 C22.041875 93.63 22.02125 97.26 22 101 C14.08 101 6.16 101 -2 101 C-2.13164943 78.71559164 -1.79315041 56.48407023 -1.07287598 34.21185303 C-0.94843404 30.32820157 -0.82999948 26.44436633 -0.7109375 22.56054688 C-0.47956863 15.04017944 -0.24143275 7.52005231 0 0 Z " fill="#ED7905" transform="translate(83,76)"/>
<path d="M0 0 C6.6 0 13.2 0 20 0 C20.26509317 9.03431882 20.52657715 18.06872452 20.78230286 27.10331345 C20.90127508 31.30184985 21.02161837 35.50033605 21.14550781 39.69873047 C21.74771063 60.14402547 22.11012845 80.5436399 22 101 C14.08 101 6.16 101 -2 101 C-2.12882165 80.33217683 -1.65203219 59.71005594 -1.07287598 39.05267334 C-0.94972841 34.63349084 -0.83052405 30.21420191 -0.7109375 25.79492188 C-0.47770651 17.19650808 -0.23991202 8.59822998 0 0 Z " fill="#ED7A05" transform="translate(39,76)"/>
<path d="M0 0 C6.27 0 12.54 0 19 0 C19.80096219 8.7669943 20.2656248 17.49473483 20.53515625 26.29296875 C20.57841147 27.65082794 20.62182652 29.00868204 20.66539001 30.36653137 C20.75564091 33.20287131 20.84359297 36.0392708 20.92993164 38.87573242 C21.01690773 41.72708097 21.10703349 44.57829823 21.20043945 47.42944336 C21.78565388 65.2927481 22.10023836 83.12415971 22 101 C14.08 101 6.16 101 -2 101 C-2.17676807 68.94605694 -2.17676807 68.94605694 -1.42822266 54.0078125 C-0.89296373 42.84437719 -0.6806119 31.67282796 -0.4375 20.5 C-0.40428146 18.98072403 -0.40428146 18.98072403 -0.37039185 17.43075562 C-0.24387428 11.62056178 -0.1214788 5.81030519 0 0 Z " fill="#EC7B08" transform="translate(127,76)"/>
<path d="M0 0 C54.78 0 109.56 0 166 0 C166 4.29 166 8.58 166 13 C111.22 13 56.44 13 0 13 C0 8.71 0 4.42 0 0 Z " fill="#EB7B0A" transform="translate(32,60)"/>
<path d="M0 0 C6.27 0 12.54 0 19 0 C20.14704513 11.38370002 20.34316651 22.75472803 20.5625 34.1875 C20.58367889 35.22793457 20.60485779 36.26836914 20.62667847 37.34033203 C21.05500144 58.56147498 21.10247861 79.77554217 21 101 C13.41 101 5.82 101 -2 101 C-2.13164943 78.71559164 -1.79315041 56.48407023 -1.07287598 34.21185303 C-0.94843404 30.32820157 -0.82999948 26.44436633 -0.7109375 22.56054688 C-0.47956863 15.04017944 -0.24143275 7.52005231 0 0 Z " fill="#EE7701" transform="translate(171,76)"/>
<path d="M0 0 C66.99 0 133.98 0 203 0 C203 0.33 203 0.66 203 1 C198.05 1.33 193.1 1.66 188 2 C186.9458482 5.16245541 186.68724328 7.86948218 186.4375 11.1875 C186.35371094 12.27417969 186.26992187 13.36085938 186.18359375 14.48046875 C186.12300781 15.31191406 186.06242188 16.14335938 186 17 C185.67 17 185.34 17 185 17 C185 12.71 185 8.42 185 4 C130.22 4 75.44 4 19 4 C19 3.67 19 3.34 19 3 C21.31 3 23.62 3 26 3 C26 2.34 26 1.68 26 1 C17.42 1 8.84 1 0 1 C0 0.67 0 0.34 0 0 Z " fill="#FDEFD5" transform="translate(13,56)"/>
<path d="M0 0 C54.78 0 109.56 0 166 0 C166 0.33 166 0.66 166 1 C150.82 1.33 135.64 1.66 120 2 C117.51313937 12.5110517 117.51313937 12.5110517 116 23 C115.67 23 115.34 23 115 23 C113.96665763 16.28327457 113.92276533 9.79665108 114 3 C107.73 3 101.46 3 95 3 C95 17.52 95 32.04 95 47 C94.67 47 94.34 47 94 47 C94 32.81 94 18.62 94 4 C93.01 4 92.02 4 91 4 C91 4.99 91 5.98 91 7 C90.34 7 89.68 7 89 7 C89 6.01 89 5.02 89 4 C83.39 4 77.78 4 72 4 C72 3.67 72 3.34 72 3 C80.415 2.505 80.415 2.505 89 2 C87.36981934 2.00523682 85.73963867 2.01047363 84.06005859 2.01586914 C76.49838212 2.03807686 68.93670201 2.05297858 61.375 2.0625 C60.69992275 2.06335602 60.0248455 2.06421204 59.32931137 2.06509399 C39.53720032 2.08729046 19.77230818 1.9985746 0 1 C0 0.67 0 0.34 0 0 Z " fill="#FEFBE6" transform="translate(32,73)"/>
<path d="M0 0 C6.27 0 12.54 0 19 0 C20.15303679 10.93115191 20.11405233 21.77421746 20.0625 32.75 C20.05747365 34.62239463 20.05291276 36.49479058 20.04882812 38.3671875 C20.03791543 42.91149123 20.02071371 47.45573081 20 52 C19.67 52 19.34 52 19 52 C19 44.08 19 36.16 19 28 C18.01 28 17.02 28 16 28 C16 25.36 16 22.72 16 20 C16.66 20 17.32 20 18 20 C18 13.73 18 7.46 18 1 C12.39 1 6.78 1 1 1 C1.16242188 2.30710937 1.32484375 3.61421875 1.4921875 4.9609375 C2.17114922 11.7721471 2.15013877 18.57748751 2.13037109 25.4140625 C2.12499351 27.62767327 2.130355 29.84108272 2.13671875 32.0546875 C2.13605813 33.48697961 2.13477729 34.91927159 2.1328125 36.3515625 C2.13168457 37.62854004 2.13055664 38.90551758 2.12939453 40.22119141 C2.01840144 43.46260857 1.68699291 46.58005373 1.25146484 49.79013062 C0.74171237 54.26982795 0.6371062 58.77828307 0.46484375 63.28125 C0.42186661 64.33534058 0.37888947 65.38943115 0.33460999 66.47546387 C0.19909403 69.81685805 0.06822626 73.15841534 -0.0625 76.5 C-0.15398908 78.77605406 -0.24578278 81.0520959 -0.33789062 83.328125 C-0.56268756 88.88526713 -0.78118824 94.44260613 -1 100 C6.26 100 13.52 100 21 100 C21 100.33 21 100.66 21 101 C13.41 101 5.82 101 -2 101 C-2.13164943 78.71559164 -1.79315041 56.48407023 -1.07287598 34.21185303 C-0.94843404 30.32820157 -0.82999948 26.44436633 -0.7109375 22.56054688 C-0.47956863 15.04017944 -0.24143275 7.52005231 0 0 Z " fill="#DE8929" transform="translate(171,76)"/>
<path d="M0 0 C6.6 0 13.2 0 20 0 C20 9.24 20 18.48 20 28 C19.67 28 19.34 28 19 28 C19 19.09 19 10.18 19 1 C13.06 1 7.12 1 1 1 C1.33 4.63 1.66 8.26 2 12 C2.66 12 3.32 12 4 12 C4.02917234 15.87498404 4.04685673 19.74993958 4.0625 23.625 C4.07087891 24.71941406 4.07925781 25.81382813 4.08789062 26.94140625 C4.09111328 28.00488281 4.09433594 29.06835938 4.09765625 30.1640625 C4.10289307 31.13811035 4.10812988 32.1121582 4.11352539 33.11572266 C3.79513614 41.20486386 3.79513614 41.20486386 1 44 C0.6936141 46.73434962 0.4886664 49.38279821 0.375 52.125 C0.33632812 52.87910156 0.29765625 53.63320312 0.2578125 54.41015625 C0.16348969 56.27303184 0.08065338 58.13648255 0 60 C-0.33 60 -0.66 60 -1 60 C-1.12751742 39.96603256 -0.8758087 20.01848452 0 0 Z " fill="#E69035" transform="translate(83,76)"/>
<path d="M0 0 C0.33 0 0.66 0 1 0 C1.86102098 22.34303638 2.13116415 44.64155663 2 67 C2.66 67 3.32 67 4 67 C3.67 77.89 3.34 88.78 3 100 C2.67 100 2.34 100 2 100 C0.64934121 66.65343969 -0.34813601 33.37553193 0 0 Z " fill="#FCECD1" transform="translate(59,77)"/>
<path d="M0 0 C6.6 0 13.2 0 20 0 C20.14418247 5.97327381 20.28715594 11.94655381 20.42724609 17.91992188 C20.47507244 19.94467755 20.52355565 21.96941783 20.57275391 23.99414062 C20.86395834 35.99889476 21.07843095 47.99135029 21 60 C20.01 60 19.02 60 18 60 C18.33 40.53 18.66 21.06 19 1 C13.06 1 7.12 1 1 1 C1 4.63 1 8.26 1 12 C0.67 12 0.34 12 0 12 C0 8.04 0 4.08 0 0 Z " fill="#E0913A" transform="translate(39,76)"/>
<path d="M0 0 C0.33 0 0.66 0 1 0 C1.14374476 16.36257619 0.7838511 32.65587063 0 49 C-1.32 49 -2.64 49 -4 49 C-4 46.36 -4 43.72 -4 41 C-3.01 40.505 -3.01 40.505 -2 40 C-1.979375 38.72125 -1.95875 37.4425 -1.9375 36.125 C-1.92589844 35.40570313 -1.91429687 34.68640625 -1.90234375 33.9453125 C-1.87350758 31.91814596 -1.87350758 31.91814596 -3 30 C-2.91161539 27.62216895 -2.75653579 25.24654854 -2.5625 22.875 C-2.46066406 21.59367187 -2.35882813 20.31234375 -2.25390625 18.9921875 C-2.12822266 17.51105469 -2.12822266 17.51105469 -2 16 C-1.67 16 -1.34 16 -1 16 C-0.67 10.72 -0.34 5.44 0 0 Z " fill="#FDF7EB" transform="translate(37,128)"/>
<path d="M0 0 C0 14.85 0 29.7 0 45 C-0.33 45 -0.66 45 -1 45 C-1 30.81 -1 16.62 -1 2 C-1.99 2 -2.98 2 -4 2 C-4 2.99 -4 3.98 -4 5 C-4.66 5 -5.32 5 -6 5 C-6 4.01 -6 3.02 -6 2 C-11.61 2 -17.22 2 -23 2 C-23 1.67 -23 1.34 -23 1 C-20.29178874 0.83111377 -17.58345903 0.66482399 -14.875 0.5 C-14.11445312 0.45230469 -13.35390625 0.40460938 -12.5703125 0.35546875 C-11.82265625 0.31035156 -11.075 0.26523438 -10.3046875 0.21875 C-9.62390137 0.17685547 -8.94311523 0.13496094 -8.24169922 0.09179688 C-5.49659638 -0.02061422 -2.74740347 0 0 0 Z " fill="#FAE7CA" transform="translate(127,75)"/>
<path d="M0 0 C0.33 0 0.66 0 1 0 C1 7.92 1 15.84 1 24 C1.66 24 2.32 24 3 24 C3 29.28 3 34.56 3 40 C2.01 40 1.02 40 0 40 C0 26.8 0 13.6 0 0 Z " fill="#E6790A" transform="translate(82,136)"/>
<path d="M0 0 C0.33 0 0.66 0 1 0 C1 4.29 1 8.58 1 13 C-2.63 13 -6.26 13 -10 13 C-10 11.35 -10 9.7 -10 8 C-6.7 8 -3.4 8 0 8 C0 5.36 0 2.72 0 0 Z " fill="#FCF7E6" transform="translate(10,193)"/>
<path d="M0 0 C0.33 0 0.66 0 1 0 C1 2.31 1 4.62 1 7 C1.66 7 2.32 7 3 7 C3.33 6.01 3.66 5.02 4 4 C4 5.65 4 7.3 4 9 C6.31 9 8.62 9 11 9 C11 10.32 11 11.64 11 13 C7.37 13 3.74 13 0 13 C0 8.71 0 4.42 0 0 Z " fill="#FBFEF2" transform="translate(219,193)"/>
<path d="M0 0 C1.79244141 0.01740234 1.79244141 0.01740234 3.62109375 0.03515625 C5.41740234 0.04869141 5.41740234 0.04869141 7.25 0.0625 C8.17683594 0.07410156 9.10367188 0.08570313 10.05859375 0.09765625 C7.34483234 2.97247175 4.71453726 4.53082332 1.05859375 6.09765625 C-0.26140625 6.09765625 -1.58140625 6.09765625 -2.94140625 6.09765625 C-2.94140625 6.75765625 -2.94140625 7.41765625 -2.94140625 8.09765625 C-3.60140625 7.76765625 -4.26140625 7.43765625 -4.94140625 7.09765625 C-4.61140625 6.10765625 -4.28140625 5.11765625 -3.94140625 4.09765625 C-3.94140625 3.10765625 -3.94140625 2.11765625 -3.94140625 1.09765625 C-2.94140625 0.09765625 -2.94140625 0.09765625 0 0 Z " fill="#FBF6E7" transform="translate(102.94140625,-0.09765625)"/>
<path d="M0 0 C2.02237052 0.95394836 4.0282696 1.94535351 6 3 C2.0186217 4.3271261 -1.85045227 4.06915913 -6 4 C-6.33 4.66 -6.66 5.32 -7 6 C-11.75 5.125 -11.75 5.125 -14 4 C-12.61518672 3.12808053 -11.21654754 2.27809616 -9.8125 1.4375 C-8.64654297 0.72400391 -8.64654297 0.72400391 -7.45703125 -0.00390625 C-4.45557574 -1.22071254 -3.05607107 -0.95254163 0 0 Z " fill="#E6841E" transform="translate(118,1)"/>
<path d="M0 0 C4.29 0 8.58 0 13 0 C12.34 1.32 11.68 2.64 11 4 C12.32 4.66 13.64 5.32 15 6 C14.67 6.66 14.34 7.32 14 8 C9.38 5.69 4.76 3.38 0 1 C0 0.67 0 0.34 0 0 Z " fill="#F8F3E4" transform="translate(117,0)"/>
<path d="M0 0 C3.63 0 7.26 0 11 0 C11 4.29 11 8.58 11 13 C10.67 13 10.34 13 10 13 C10 10.69 10 8.38 10 6 C6.7 6 3.4 6 0 6 C0 5.67 0 5.34 0 5 C2.64 5 5.28 5 8 5 C8 4.34 8 3.68 8 3 C5.69 3 3.38 3 1 3 C0.67 2.01 0.34 1.02 0 0 Z " fill="#E38018" transform="translate(208,193)"/>
<path d="M0 0 C3.49403583 0.72376457 6.51998905 2.06285206 9.75 3.5625 C11.22726563 4.24505859 11.22726563 4.24505859 12.734375 4.94140625 C13.48203125 5.29074219 14.2296875 5.64007813 15 6 C11.90765472 6.89893758 9.09202643 7.16349234 5.875 7.1875 C4.57175781 7.20876953 4.57175781 7.20876953 3.2421875 7.23046875 C1 7 1 7 -1 5 C-0.01 4.67 0.98 4.34 2 4 C2.33 3.34 2.66 2.68 3 2 C2.01 2 1.02 2 0 2 C0 1.34 0 0.68 0 0 Z " fill="#E87E16" transform="translate(165,24)"/>
<path d="M0 0 C0 1.32 0 2.64 0 4 C-0.99 4 -1.98 4 -3 4 C-3 4.66 -3 5.32 -3 6 C-3.99 6 -4.98 6 -6 6 C-6 5.34 -6 4.68 -6 4 C-7.98 4.33 -9.96 4.66 -12 5 C-7.86687528 1.75254486 -5.36067372 0 0 0 Z " fill="#E9831D" transform="translate(64,25)"/>
<path d="M0 0 C4.0261795 6.03926925 3.12898169 13.10066745 2 20 C1.67 20 1.34 20 1 20 C-0.03026944 13.30324864 -0.10152799 6.7685324 0 0 Z " fill="#F9F0DE" transform="translate(146,76)"/>
<path d="M0 0 C0 0.66 0 1.32 0 2 C0.99 2 1.98 2 3 2 C2.67 2.66 2.34 3.32 2 4 C1.34 4 0.68 4 0 4 C0 4.66 0 5.32 0 6 C-3.3 5.67 -6.6 5.34 -10 5 C-8.28489314 1.56978628 -3.75681361 0 0 0 Z " fill="#EA8824" transform="translate(45,33)"/>
<path d="M0 0 C0 0.66 0 1.32 0 2 C-5.875 5 -5.875 5 -7 5 C-7.33 7.31 -7.66 9.62 -8 12 C-8.66 12 -9.32 12 -10 12 C-10 9.36 -10 6.72 -10 4 C-8.71086513 3.32845067 -7.41859796 2.66291141 -6.125 2 C-5.40570312 1.62875 -4.68640625 1.2575 -3.9453125 0.875 C-2 0 -2 0 0 0 Z " fill="#E1882B" transform="translate(22,44)"/>
<path d="M0 0 C4.47238653 1.41807378 8.71146306 3.11304374 13 5 C13 5.33 13 5.66 13 6 C8.545 6.495 8.545 6.495 4 7 C3.67 5.68 3.34 4.36 3 3 C2.01 2.67 1.02 2.34 0 2 C0 1.34 0 0.68 0 0 Z " fill="#E5831C" transform="translate(131,8)"/>
<path d="M0 0 C0 0.66 0 1.32 0 2 C-3.55477643 4.97735082 -6.86488289 6.89865026 -11.5 7.3125 C-12.325 7.209375 -13.15 7.10625 -14 7 C-12.5438656 4.08773121 -10.50039336 3.68157936 -7.5625 2.375 C-6.07943359 1.70597656 -6.07943359 1.70597656 -4.56640625 1.0234375 C-2 0 -2 0 0 0 Z " fill="#E29032" transform="translate(98,8)"/>
<path d="M0 0 C-3.40219265 2.74792483 -7.48464588 6 -12 6 C-12 5.34 -12 4.68 -12 4 C-11.34 4 -10.68 4 -10 4 C-9.67 3.01 -9.34 2.02 -9 1 C-5.8035914 -0.06546953 -3.34252724 -0.07427838 0 0 Z " fill="#F9F5E6" transform="translate(60,25)"/>
<path d="M0 0 C0.495 0.268125 0.99 0.53625 1.5 0.8125 C4.9236946 2.43875493 8.44132285 3.69515171 12 5 C12 5.33 12 5.66 12 6 C9.03 6 6.06 6 3 6 C3 5.34 3 4.68 3 4 C2.01 4 1.02 4 0 4 C0 2.68 0 1.36 0 0 Z " fill="#E37F14" transform="translate(202,41)"/>
<path d="M0 0 C2.31 0.33 4.62 0.66 7 1 C6.67 1.99 6.34 2.98 6 4 C4.02 3.01 2.04 2.02 0 1 C0 0.67 0 0.34 0 0 Z M-4 2 C0.455 2.99 0.455 2.99 5 4 C4.67 4.66 4.34 5.32 4 6 C1.64828869 5.40138258 -0.6859378 4.73075648 -3 4 C-3.33 3.34 -3.66 2.68 -4 2 Z " fill="#FAE7CF" transform="translate(209,40)"/>
<path d="M0 0 C0.33 0 0.66 0 1 0 C1 2.31 1 4.62 1 7 C1.66 7 2.32 7 3 7 C3.33 6.01 3.66 5.02 4 4 C4.33 5.98 4.66 7.96 5 10 C3.68 10 2.36 10 1 10 C0.67 10.99 0.34 11.98 0 13 C0 8.71 0 4.42 0 0 Z " fill="#FBECD3" transform="translate(219,193)"/>
<path d="M0 0 C0 0.66 0 1.32 0 2 C0.66 2.33 1.32 2.66 2 3 C1.34 3 0.68 3 0 3 C0 3.66 0 4.32 0 5 C-5.75 3.25 -5.75 3.25 -8 1 C-5.10765685 0.17361624 -3.11257569 0 0 0 Z " fill="#F7EAD3" transform="translate(166,19)"/>
<path d="M0 0 C6.4 -0.49230769 6.4 -0.49230769 9.4375 2 C10.2109375 2.99 10.2109375 2.99 11 4 C8 5 8 5 5.95703125 4.22265625 C5.24933594 3.83980469 4.54164063 3.45695313 3.8125 3.0625 C3.09707031 2.68222656 2.38164062 2.30195313 1.64453125 1.91015625 C1.10183594 1.60980469 0.55914062 1.30945313 0 1 C0 0.67 0 0.34 0 0 Z " fill="#F8EFDA" transform="translate(133,8)"/>
<path d="M0 0 C2.97 0 5.94 0 9 0 C8.01 0.33 7.02 0.66 6 1 C6 1.66 6 2.32 6 3 C6.99 3 7.98 3 9 3 C9 3.66 9 4.32 9 5 C4.89198233 3.81323934 3.10551666 3.10551666 0 0 Z " fill="#FAEDD8" transform="translate(117,0)"/>
<path d="M0 0 C2.475 0.495 2.475 0.495 5 1 C5.33 4.63 5.66 8.26 6 12 C4.68 12 3.36 12 2 12 C2 11.34 2 10.68 2 10 C2.66 10 3.32 10 4 10 C4 7.36 4 4.72 4 2 C2.68 1.34 1.36 0.68 0 0 Z " fill="#F9F7E1" transform="translate(214,46)"/>
<path d="M0 0 C3.91211733 1.15585285 6.8745041 2.35534962 10 5 C7 6 7 6 4.4375 5.3125 C1.70124563 3.83913226 1.05041579 2.86477034 0 0 Z " fill="#E2790F" transform="translate(152,18)"/>
<path d="M0 0 C1 3 1 3 1 5 C-1.35171131 4.40138258 -3.6859378 3.73075648 -6 3 C-6.33 2.34 -6.66 1.68 -7 1 C-3.535 0.505 -3.535 0.505 0 0 Z " fill="#F7EDD3" transform="translate(151,12)"/>
<path d="M0 0 C1.98 0 3.96 0 6 0 C6 0.66 6 1.32 6 2 C3 4 3 4 -1 4 C-0.67 2.68 -0.34 1.36 0 0 Z " fill="#FAF6EB" transform="translate(37,32)"/>
<path d="M0 0 C0.94875 0.350625 1.8975 0.70125 2.875 1.0625 C-0.79910785 2.23821451 -4.29429183 2.13616746 -8.125 2.0625 C-3.46982759 -1.04094828 -3.46982759 -1.04094828 0 0 Z " fill="#E47C12" transform="translate(121.125,2.9375)"/>
<path d="M0 0 C2.1875 0.3125 2.1875 0.3125 4 1 C3.67 1.66 3.34 2.32 3 3 C2.34 3 1.68 3 1 3 C1 3.66 1 4.32 1 5 C-0.32 4.34 -1.64 3.68 -3 3 C-1.75 1.4375 -1.75 1.4375 0 0 Z " fill="#FAEDDC" transform="translate(178,25)"/>
</svg>
