<?xml version="1.0" encoding="UTF-8"?>
<svg version="1.1" xmlns="http://www.w3.org/2000/svg" width="148" height="148">
<path d="M0 0 C48.84 0 97.68 0 148 0 C148 48.84 148 97.68 148 148 C99.16 148 50.32 148 0 148 C0 99.16 0 50.32 0 0 Z " fill="#2C752F" transform="translate(0,0)"/>
<path d="M0 0 C12.55302082 10.61868696 21.6136225 25.05122586 23.00878906 41.64746094 C24.15779527 60.616903 20.13264348 75.86810338 7.5 90.5 C3.3623944 94.9391599 -1.05728358 99.0369707 -6.1875 102.3125 C-6.8475 102.3125 -7.5075 102.3125 -8.1875 102.3125 C-8.5238688 97.91689342 -8.85606586 93.5209812 -9.1875 89.125 C-9.28289062 87.87912109 -9.37828125 86.63324219 -9.4765625 85.34960938 C-9.56679687 84.14755859 -9.65703125 82.94550781 -9.75 81.70703125 C-9.83378906 80.60206299 -9.91757813 79.49709473 -10.00390625 78.35864258 C-10.16619636 75.66596486 -10.22260374 73.00890611 -10.1875 70.3125 C-9.48882812 69.98636719 -8.79015625 69.66023438 -8.0703125 69.32421875 C-7.16023438 68.88722656 -6.25015625 68.45023437 -5.3125 68 C-3.95511719 67.35611328 -3.95511719 67.35611328 -2.5703125 66.69921875 C0.07699476 65.3925612 0.07699476 65.3925612 1.8125 62.3125 C2.12170087 59.70061243 2.12170087 59.70061243 2.078125 56.74609375 C2.08199219 55.6286377 2.08585937 54.51118164 2.08984375 53.35986328 C2.08082031 52.1686084 2.07179688 50.97735352 2.0625 49.75 C2.05863281 48.53812012 2.05476563 47.32624023 2.05078125 46.07763672 C1.96945334 37.55740862 1.41106928 29.22540839 0.25 20.7890625 C-0.11286376 17.90559152 -0.27702041 15.2107232 -0.1875 12.3125 C-1.1775 12.3125 -2.1675 12.3125 -3.1875 12.3125 C-3.1875 26.1725 -3.1875 40.0325 -3.1875 54.3125 C-4.5075 54.3125 -5.8275 54.3125 -7.1875 54.3125 C-7.1875 40.4525 -7.1875 26.5925 -7.1875 12.3125 C-8.5075 12.3125 -9.8275 12.3125 -11.1875 12.3125 C-11.1875 26.1725 -11.1875 40.0325 -11.1875 54.3125 C-12.5075 54.3125 -13.8275 54.3125 -15.1875 54.3125 C-15.1875 40.4525 -15.1875 26.5925 -15.1875 12.3125 C-16.5075 12.3125 -17.8275 12.3125 -19.1875 12.3125 C-19.1875 26.1725 -19.1875 40.0325 -19.1875 54.3125 C-20.5075 54.3125 -21.8275 54.3125 -23.1875 54.3125 C-23.1875 40.4525 -23.1875 26.5925 -23.1875 12.3125 C-24.5075 12.3125 -25.8275 12.3125 -27.1875 12.3125 C-27.26097656 13.38951172 -27.26097656 13.38951172 -27.3359375 14.48828125 C-27.76535926 20.43355147 -28.29124282 26.34287355 -28.97436523 32.26367188 C-31.67899664 49.39037979 -31.67899664 49.39037979 -27.1875 65.3125 C-24.98511821 67.05337577 -24.98511821 67.05337577 -22.5 68.1875 C-21.69175781 68.59742187 -20.88351563 69.00734375 -20.05078125 69.4296875 C-19.43589844 69.72101563 -18.82101563 70.01234375 -18.1875 70.3125 C-18.05942054 83.02082863 -18.39208373 95.62845119 -19.1875 108.3125 C-30.76051128 112.43170741 -42.14582884 111.97342016 -54.1875 110.3125 C-55.7536788 95.92739761 -56.45378138 81.78045482 -56.1875 67.3125 C-55.57189209 66.99724365 -54.95628418 66.6819873 -54.32202148 66.35717773 C-53.51321533 65.92864502 -52.70440918 65.5001123 -51.87109375 65.05859375 C-51.06986084 64.6402124 -50.26862793 64.22183105 -49.44311523 63.79077148 C-44.10978918 60.29544848 -41.82585106 54.26042666 -40.1875 48.3125 C-39.27732248 38.61671418 -38.96862548 29.37054042 -45.1875 21.3125 C-49.21000054 16.94181035 -53.32649798 13.67230664 -59.3671875 13.109375 C-66.31584184 13.1526688 -70.217139 15.904639 -75.046875 20.734375 C-80.82846817 27.69760765 -81.92432025 34.85330045 -81.6328125 43.7734375 C-80.58656448 52.08835596 -77.60468537 59.10135487 -70.93359375 64.32421875 C-69.03542916 65.39857142 -67.3024329 65.82233802 -65.1875 66.3125 C-64.98111047 93.2701474 -64.98111047 93.2701474 -66.1875 105.3125 C-79.71010176 100.46385541 -89.85663468 88.86117948 -96.1875 76.3125 C-103.88095006 58.64793374 -103.99181102 41.28361947 -97.0546875 23.390625 C-94.24938478 17.40845628 -90.50023867 12.29430086 -86.1875 7.3125 C-85.60355469 6.63316406 -85.01960938 5.95382813 -84.41796875 5.25390625 C-62.05518008 -18.89790552 -25.49737297 -19.18186982 0 0 Z " fill="#348C39" transform="translate(113.1875,24.6875)"/>
<path d="M0 0 C18.17754298 -0.83255922 35.65002803 6.02630808 49.046875 18.15625 C49.71847656 18.73632812 50.39007813 19.31640625 51.08203125 19.9140625 C62.22317773 30.17507987 70.00493344 45.49567706 71.25390625 60.671875 C71.34959247 63.29527207 71.37590291 65.90618622 71.359375 68.53125 C71.35200317 69.92041626 71.35200317 69.92041626 71.34448242 71.33764648 C71.22975361 78.02663014 70.5138832 83.89460671 68.046875 90.15625 C67.69496094 91.1359375 67.34304687 92.115625 66.98046875 93.125 C64.25908888 100.23830977 60.72486246 106.16639214 56.046875 112.15625 C55.28117187 113.18685547 55.28117187 113.18685547 54.5 114.23828125 C44.75215874 126.47133947 28.54737587 134.90818198 13.17578125 136.9140625 C-6.60264764 138.4449771 -23.89181639 135.33435238 -39.953125 123.15625 C-47.38555722 116.69938737 -53.22875165 109.78874372 -57.953125 101.15625 C-58.42492187 100.31835938 -58.89671875 99.48046875 -59.3828125 98.6171875 C-67.16330414 83.3784731 -67.85916782 64.52775706 -63.265625 48.21875 C-56.61858512 29.25443549 -43.596347 15.00016023 -25.75830078 5.99755859 C-17.42323748 2.11297269 -9.03757541 0.72300603 0 0 Z M-38.953125 22.15625 C-39.96826172 23.03023437 -39.96826172 23.03023437 -41.00390625 23.921875 C-52.66111146 34.69630156 -58.88801001 49.3399483 -60.19140625 65.0234375 C-60.61017783 81.9947068 -55.11112598 97.79173542 -44.1640625 110.8359375 C-40.44220214 114.74191816 -36.3119363 117.99283176 -31.953125 121.15625 C-31.32664062 121.61257812 -30.70015625 122.06890625 -30.0546875 122.5390625 C-27.26492165 124.58179108 -27.26492165 124.58179108 -23.953125 125.15625 C-22.6524735 112.17296093 -22.85334916 99.18850916 -22.953125 86.15625 C-24.05269531 85.71410156 -25.15226562 85.27195312 -26.28515625 84.81640625 C-32.05242533 82.49732853 -34.71697502 78.0832704 -37.265625 72.65625 C-40.22410059 64.63817737 -40.22480853 55.77960965 -37.390625 47.71875 C-34.50218431 41.535046 -30.39660316 37.60423706 -24.578125 34.15625 C-19.17992516 32.66709142 -14.84267234 32.69850709 -9.77734375 35.25390625 C-4.40625308 38.88520861 -1.65512922 43.35795768 1.046875 49.15625 C1.376875 49.81625 1.706875 50.47625 2.046875 51.15625 C2.85142518 61.43150518 2.90481415 71.20300473 -2.953125 80.15625 C-6.30068377 83.26510339 -9.8230287 85.23527498 -13.953125 87.15625 C-14.21940638 101.62420482 -13.5193038 115.77114761 -11.953125 130.15625 C0.08854616 131.81717016 11.47386372 132.27545741 23.046875 128.15625 C23.38671047 122.73708795 23.66712079 117.31909906 23.90478516 111.89453125 C24.04378718 109.21575695 24.25053163 106.54865605 24.46484375 103.875 C24.99122068 96.96681395 24.99122068 96.96681395 24.046875 90.15625 C21.63754801 87.53779516 19.75652318 86.49278937 16.4296875 85.2890625 C14.046875 84.15625 14.046875 84.15625 12.74609375 81.90625 C9.40215527 68.75467071 13.12692671 53.17352701 14.77148438 39.96435547 C15.02897631 37.33875947 15.097553 34.79210944 15.046875 32.15625 C16.366875 32.15625 17.686875 32.15625 19.046875 32.15625 C19.046875 46.01625 19.046875 59.87625 19.046875 74.15625 C20.366875 74.15625 21.686875 74.15625 23.046875 74.15625 C23.046875 60.29625 23.046875 46.43625 23.046875 32.15625 C24.366875 32.15625 25.686875 32.15625 27.046875 32.15625 C27.046875 46.01625 27.046875 59.87625 27.046875 74.15625 C28.366875 74.15625 29.686875 74.15625 31.046875 74.15625 C31.046875 60.29625 31.046875 46.43625 31.046875 32.15625 C32.366875 32.15625 33.686875 32.15625 35.046875 32.15625 C35.046875 46.01625 35.046875 59.87625 35.046875 74.15625 C36.366875 74.15625 37.686875 74.15625 39.046875 74.15625 C39.046875 60.29625 39.046875 46.43625 39.046875 32.15625 C40.036875 32.15625 41.026875 32.15625 42.046875 32.15625 C42.10746094 33.31382813 42.16804688 34.47140625 42.23046875 35.6640625 C42.31493002 37.20313457 42.39957518 38.74219655 42.484375 40.28125 C42.52369141 41.04179688 42.56300781 41.80234375 42.60351562 42.5859375 C42.64541016 43.33359375 42.68730469 44.08125 42.73046875 44.8515625 C42.76712646 45.53234863 42.80378418 46.21313477 42.84155273 46.91455078 C43.02659719 49.27096763 43.02659719 49.27096763 43.54956055 52.03051758 C44.43016426 57.56530864 44.35658622 63.12468839 44.421875 68.71875 C44.47794922 70.54696289 44.47794922 70.54696289 44.53515625 72.41210938 C44.62277488 81.2859294 44.62277488 81.2859294 41.9609375 85.30859375 C38.70768543 87.37131256 35.654113 88.81237702 32.046875 90.15625 C32.18750783 93.80230302 32.33534318 97.44803139 32.484375 101.09375 C32.52369141 102.11533203 32.56300781 103.13691406 32.60351562 104.18945312 C32.85407501 110.22215209 33.30330555 116.163955 34.046875 122.15625 C46.65664688 117.87072255 55.00949938 104.78145804 60.6875 93.44140625 C63.97561125 85.4951374 65.56048523 78.39021996 65.421875 69.78125 C65.41172363 68.862229 65.40157227 67.94320801 65.39111328 66.99633789 C65.00724523 50.14036464 58.66092876 36.37265339 47.046875 24.15625 C35.10174031 12.83877427 19.49261861 6.14393433 2.984375 5.71875 C-13.19925734 6.28435609 -26.79174054 11.4779612 -38.953125 22.15625 Z " fill="#F6F9F7" transform="translate(70.953125,4.84375)"/>
<path d="M0 0 C0.66 0 1.32 0 2 0 C2 0.66 2 1.32 2 2 C2.66 2 3.32 2 4 2 C5.38232443 3.62626404 6.71937515 5.2925002 8 7 C8.33 5.35 8.66 3.7 9 2 C9.33 2 9.66 2 10 2 C9.98428955 2.8470752 9.9685791 3.69415039 9.95239258 4.56689453 C9.9010443 7.73142204 9.86354328 10.89573608 9.83520508 14.06054688 C9.82018572 15.42617816 9.79976392 16.79176176 9.77368164 18.15722656 C9.73699863 20.12803905 9.72181449 22.09921408 9.70703125 24.0703125 C9.6913208 25.25383301 9.67561035 26.43735352 9.65942383 27.65673828 C10.04205249 31.41280775 11.04847926 33.78738825 13 37 C15.20238179 38.74087577 15.20238179 38.74087577 17.6875 39.875 C18.49574219 40.28492188 19.30398437 40.69484375 20.13671875 41.1171875 C21.05904297 41.55417969 21.05904297 41.55417969 22 42 C22.12807946 54.70832863 21.79541627 67.31595119 21 80 C9.42698872 84.11920741 -1.95832884 83.66092016 -14 82 C-15.5661788 67.61489761 -16.26628138 53.46795482 -16 39 C-15.38439209 38.68474365 -14.76878418 38.3694873 -14.13452148 38.04467773 C-13.32571533 37.61614502 -12.51690918 37.1876123 -11.68359375 36.74609375 C-10.88236084 36.3277124 -10.08112793 35.90933105 -9.25561523 35.47827148 C-3.97069089 32.0146697 -1.53586826 25.93186452 0 20 C0.23093508 16.53669208 0.18933122 13.09393734 0.125 9.625 C0.11597656 8.69816406 0.10695313 7.77132812 0.09765625 6.81640625 C0.07422937 4.54399923 0.04142748 2.2721382 0 0 Z " fill="#2C742F" transform="translate(73,53)"/>
<path d="M0 0 C4.554787 3.80014774 8.95279259 7.65665546 13 12 C13 12.66 13 13.32 13 14 C13.66 14 14.32 14 15 14 C16.33333333 15.33333333 17.66666667 16.66666667 19 18 C19.66 18 20.32 18 21 18 C24.48270531 35.38497977 22.46734667 52.6607284 12.72265625 67.6640625 C7.21575168 75.13147504 0.86650005 81.97741434 -7 87 C-7.66 87 -8.32 87 -9 87 C-9.3363688 82.60439342 -9.66856586 78.2084812 -10 73.8125 C-10.09539062 72.56662109 -10.19078125 71.32074219 -10.2890625 70.03710938 C-10.37929687 68.83505859 -10.46953125 67.63300781 -10.5625 66.39453125 C-10.68818359 64.73707886 -10.68818359 64.73707886 -10.81640625 63.04614258 C-10.97869636 60.35346486 -11.03510374 57.69640611 -11 55 C-9.95199219 54.51080078 -9.95199219 54.51080078 -8.8828125 54.01171875 C-7.97273438 53.57472656 -7.06265625 53.13773438 -6.125 52.6875 C-5.22007813 52.25824219 -4.31515625 51.82898438 -3.3828125 51.38671875 C-0.73550524 50.0800612 -0.73550524 50.0800612 1 47 C1.29298775 44.18998042 1.29298775 44.18998042 1.23046875 41.01171875 C1.22756836 39.23958008 1.22756836 39.23958008 1.22460938 37.43164062 C1.21236328 36.19607422 1.20011719 34.96050781 1.1875 33.6875 C1.18685547 32.46353516 1.18621094 31.23957031 1.18554688 29.97851562 C1.15878265 24.50969157 0.94466256 19.39202221 0 14 C-0.06578002 11.54245859 -0.08569162 9.08331222 -0.0625 6.625 C-0.05347656 5.37976562 -0.04445313 4.13453125 -0.03515625 2.8515625 C-0.02355469 1.91054688 -0.01195313 0.96953125 0 0 Z " fill="#2D7530" transform="translate(114,40)"/>
<path d="M0 0 C0.33 0 0.66 0 1 0 C1 21.45 1 42.9 1 65 C-20.45 65 -41.9 65 -64 65 C-60.85725307 63.42862653 -59.25108144 62.74781896 -56 62.1875 C-39.19591473 58.62801396 -23.95538496 48.45274347 -13.73046875 34.73046875 C-8.09553018 25.83922257 -2.63393175 15.61545253 -0.875 5.1875 C-0.70742187 4.21167969 -0.53984375 3.23585938 -0.3671875 2.23046875 C-0.18542969 1.12638672 -0.18542969 1.12638672 0 0 Z " fill="#E4E7E4" transform="translate(147,83)"/>
<path d="M0 0 C21.45 0 42.9 0 65 0 C65 21.45 65 42.9 65 65 C63.44214806 61.88429612 62.71822704 60.17603537 62.125 56.9375 C58.47330363 39.90554213 48.78130557 25.07279472 34.6875 14.72265625 C23.75840232 7.71723172 12.68592554 3.56417644 0 1 C0 0.67 0 0.34 0 0 Z " fill="#DFE2DF" transform="translate(83,0)"/>
<path d="M0 0 C1.87538661 3.75077322 2.70071588 6.75687947 3.625 10.8125 C8.32325444 29.37094664 19.72190879 43.95511727 36 54 C43.70276624 58.28143831 51.148015 61.63502695 59.875 63.125 C60.84179688 63.29257813 61.80859375 63.46015625 62.8046875 63.6328125 C63.89136719 63.81457031 63.89136719 63.81457031 65 64 C65 64.33 65 64.66 65 65 C43.55 65 22.1 65 0 65 C0 43.55 0 22.1 0 0 Z " fill="#E0E2E0" transform="translate(0,83)"/>
<path d="M0 0 C21.45 0 42.9 0 65 0 C65 0.33 65 0.66 65 1 C63.824375 1.226875 62.64875 1.45375 61.4375 1.6875 C40.8317969 6.36028936 24.10100641 16.23968672 12 34 C6.22392091 43.8540979 1.88085304 54.54891043 1 66 C0.67 66 0.34 66 0 66 C0 44.22 0 22.44 0 0 Z " fill="#CFD0CF" transform="translate(0,0)"/>
<path d="M0 0 C1.98 0 3.96 0 6 0 C6 1.98 6 3.96 6 6 C7.98 6 9.96 6 12 6 C12 7.98 12 9.96 12 12 C13.98 12 15.96 12 18 12 C18 10.02 18 8.04 18 6 C19.98 6 21.96 6 24 6 C24 7.98 24 9.96 24 12 C25.98 12 27.96 12 30 12 C30 10.02 30 8.04 30 6 C36.40635181 5.40681928 40.07163614 6.73016818 45.69921875 9.76171875 C51.74091739 13.01336301 58.30949265 13.88094717 65 15 C65 15.33 65 15.66 65 16 C43.55 16 22.1 16 0 16 C0 10.72 0 5.44 0 0 Z " fill="#CECFCE" transform="translate(0,132)"/>
<path d="M0 0 C3.3 0 6.6 0 10 0 C10 21.45 10 42.9 10 65 C8.44214806 61.88429612 7.71822704 60.17603537 7.125 56.9375 C5.61305217 49.67775048 2.76337984 42.85910354 0 36 C1.98 36 3.96 36 6 36 C6 34.02 6 32.04 6 30 C4.02 30 2.04 30 0 30 C0 28.02 0 26.04 0 24 C1.98 24 3.96 24 6 24 C6 22.02 6 20.04 6 18 C4.02 18 2.04 18 0 18 C0 16.02 0 14.04 0 12 C1.98 12 3.96 12 6 12 C6 10.02 6 8.04 6 6 C4.02 6 2.04 6 0 6 C0 4.02 0 2.04 0 0 Z " fill="#CECFCE" transform="translate(138,0)"/>
<path d="M0 0 C0 1.65 0 3.3 0 5 C1.98 5 3.96 5 6 5 C6 10.94 6 16.88 6 23 C4.02 23 2.04 23 0 23 C0 21.02 0 19.04 0 17 C-1.98 17 -3.96 17 -6 17 C-6 18.98 -6 20.96 -6 23 C-7.98 23 -9.96 23 -12 23 C-12 21.02 -12 19.04 -12 17 C-13.98 17 -15.96 17 -18 17 C-18 18.98 -18 20.96 -18 23 C-19.98 23 -21.96 23 -24 23 C-24 22.01 -24 21.02 -24 20 C-24.66 19.67 -25.32 19.34 -26 19 C-25.24976562 18.59910156 -24.49953125 18.19820312 -23.7265625 17.78515625 C-15.53015514 13.2327436 -8.80935722 7.95177555 -2.28515625 1.234375 C-1 0 -1 0 0 0 Z " fill="#E6E9E6" transform="translate(132,121)"/>
<path d="M0 0 C1.98 0 3.96 0 6 0 C6 1.98 6 3.96 6 6 C7.98 6 9.96 6 12 6 C12 4.02 12 2.04 12 0 C13.98 0 15.96 0 18 0 C18 1.98 18 3.96 18 6 C19.98 6 21.96 6 24 6 C24 7.32 24 8.64 24 10 C5.85 10 -12.3 10 -31 10 C-27.86315472 8.43157736 -26.03336821 7.68256054 -22.75 7.0625 C-19.58520342 6.41077089 -16.68931504 5.57011515 -13.6875 4.375 C-10 3 -10 3 -6 3 C-6 3.99 -6 4.98 -6 6 C-4.02 6 -2.04 6 0 6 C0 4.02 0 2.04 0 0 Z " fill="#D9DCD9" transform="translate(114,138)"/>
<path d="M0 0 C1.98 0 3.96 0 6 0 C6.3125 2.26171875 6.3125 2.26171875 6 5 C3.875 6.95703125 3.875 6.95703125 1 8.8125 C-6.94001443 14.25533402 -12.76439736 19.87771371 -17.48046875 28.3125 C-19 30 -19 30 -21.67578125 30.25 C-22.44277344 30.1675 -23.20976562 30.085 -24 30 C-24 28.02 -24 26.04 -24 24 C-22.02 24 -20.04 24 -18 24 C-18 22.02 -18 20.04 -18 18 C-16.02 18 -14.04 18 -12 18 C-12 16.02 -12 14.04 -12 12 C-10.02 12 -8.04 12 -6 12 C-6 10.02 -6 8.04 -6 6 C-4.02 6 -2.04 6 0 6 C0 4.02 0 2.04 0 0 Z " fill="#F1F4F1" transform="translate(30,6)"/>
<path d="M0 0 C0.99 0.495 0.99 0.495 2 1 C2 1.66 2 2.32 2 3 C2.66 3 3.32 3 4 3 C4 15.54 4 28.08 4 41 C2.68 41 1.36 41 0 41 C0 27.47 0 13.94 0 0 Z " fill="#1E6E21" transform="translate(98,38)"/>
<path d="M0 0 C4 4 4 4 4.45410156 7.85058594 C4.45347128 9.39532708 4.43104734 10.9401627 4.390625 12.484375 C4.38496521 13.29996887 4.37930542 14.11556274 4.37347412 14.95587158 C4.35112727 17.55451772 4.30093622 20.15177242 4.25 22.75 C4.22993271 24.51430297 4.21168234 26.2786276 4.1953125 28.04296875 C4.1512683 32.36251328 4.08225422 36.68102093 4 41 C2.68 41 1.36 41 0 41 C0 27.47 0 13.94 0 0 Z " fill="#27732A" transform="translate(106,38)"/>
<path d="M0 0 C5.06630675 5.06630675 4.05027561 11.4933707 4.09765625 18.34375 C4.09545319 21.06258124 4.0794205 23.78122682 4.0625 26.5 C4.05747533 27.90885258 4.05291413 29.31770689 4.04882812 30.7265625 C4.0371003 34.15108638 4.02068691 37.57552047 4 41 C2.68 41 1.36 41 0 41 C0 27.47 0 13.94 0 0 Z " fill="#217125" transform="translate(90,38)"/>
<path d="M0 0 C2.75390625 -0.28515625 2.75390625 -0.28515625 6 0 C8.08984375 1.94140625 8.08984375 1.94140625 9.9375 4.5625 C12.95485625 8.65540713 16.06479613 12.22664811 19.75 15.72265625 C21 17 21 17 21 18 C18.03 18 15.06 18 12 18 C12 16.02 12 14.04 12 12 C10.02 12 8.04 12 6 12 C6 10.02 6 8.04 6 6 C4.02 6 2.04 6 0 6 C0 4.02 0 2.04 0 0 Z " fill="#F0F2F0" transform="translate(6,114)"/>
<path d="M0 0 C8.25 0 16.5 0 25 0 C25 1.98 25 3.96 25 6 C26.98 6 28.96 6 31 6 C31 7.98 31 9.96 31 12 C30.1028125 11.54109375 29.205625 11.0821875 28.28125 10.609375 C19.05759346 6.0281217 10.06370959 3.12911596 0 1 C0 0.67 0 0.34 0 0 Z " fill="#CFD2CF" transform="translate(83,0)"/>
<path d="M0 0 C1.90131949 3.80263899 2.82081682 7.01478972 3.8125 11.125 C5.25508619 16.88063877 7.14719803 21.93035308 10.046875 27.14453125 C11 29 11 29 11 31 C9.35 31 7.7 31 6 31 C6 29.02 6 27.04 6 25 C4.02 25 2.04 25 0 25 C0 16.75 0 8.5 0 0 Z " fill="#CDD0CD" transform="translate(0,83)"/>
<path d="M0 0 C1.10683389 3.46197667 0.91279614 6.39526171 0.6875 10 C0.58501198 17.56703206 3.31774428 22.57390277 7 29 C7.33 29.99 7.66 30.98 8 32 C2.39214267 30.28648804 0.35112175 27.07493698 -2.75 22.3125 C-5.01956551 16.2981514 -4.75619398 10.45665048 -2.5625 4.4375 C-1 1 -1 1 0 0 Z " fill="#307833" transform="translate(39,55)"/>
<path d="M0 0 C2.65496704 1.05806805 5.3043965 2.12595717 7.9453125 3.21875 C14.91810182 6.02842432 21.54561884 7.99911115 29 9 C29 9.33 29 9.66 29 10 C21.41 10 13.82 10 6 10 C6 8.68 6 7.36 6 6 C4.02 6 2.04 6 0 6 C0 4.02 0 2.04 0 0 Z " fill="#D9DBD9" transform="translate(36,138)"/>
<path d="M0 0 C1.98 0 3.96 0 6 0 C6 1.98 6 3.96 6 6 C7.32 6 8.64 6 10 6 C10 13.59 10 21.18 10 29 C8.44214806 25.88429612 7.71822704 24.17603537 7.125 20.9375 C5.61305217 13.67775048 2.76337984 6.85910354 0 0 Z " fill="#D9DBD9" transform="translate(138,36)"/>
<path d="M0 0 C2.64 0.33 5.28 0.66 8 1 C8 2.98 8 4.96 8 7 C6.02 7 4.04 7 2 7 C2 8.98 2 10.96 2 13 C0.02 13 -1.96 13 -4 13 C-4.45732667 7.28341664 -3.52273754 4.51350747 0 0 Z " fill="#FCFCFC" transform="translate(136,113)"/>
<path d="M0 0 C1.32 0 2.64 0 4 0 C3.73316406 0.65355469 3.46632813 1.30710938 3.19140625 1.98046875 C1.70957954 5.73604923 0.30993164 9.51577304 -1.0625 13.3125 C-1.33126953 14.03373047 -1.60003906 14.75496094 -1.87695312 15.49804688 C-3.62550048 20.35996783 -4.52884408 24.85218532 -5 30 C-5.33 30 -5.66 30 -6 30 C-6 22.08 -6 14.16 -6 6 C-4.02 6 -2.04 6 0 6 C0 4.02 0 2.04 0 0 Z " fill="#CACFCA" transform="translate(6,36)"/>
<path d="M0 0 C7.59 0 15.18 0 23 0 C23 0.33 23 0.66 23 1 C21.824375 1.226875 20.64875 1.45375 19.4375 1.6875 C10.77799389 3.60112695 2.19376471 6.6224176 -6 10 C-6 8.68 -6 7.36 -6 6 C-4.02 6 -2.04 6 0 6 C0 4.02 0 2.04 0 0 Z " fill="#CACFCA" transform="translate(42,0)"/>
<path d="M0 0 C1.98 0 3.96 0 6 0 C6 1.98 6 3.96 6 6 C7.98 6 9.96 6 12 6 C12 7.98 12 9.96 12 12 C8.8125 12.4375 8.8125 12.4375 5 12 C1.81806715 9.21187072 0.13357518 6.25560665 -0.3125 2.0625 C-0.209375 1.381875 -0.10625 0.70125 0 0 Z " fill="#EDEFED" transform="translate(132,24)"/>
<path d="M0 0 C1.98 0 3.96 0 6 0 C6 1.98 6 3.96 6 6 C7.98 6 9.96 6 12 6 C12 7.98 12 9.96 12 12 C7.19447685 11.56313426 3.28442587 9.50709882 0 6 C-0.4375 2.6875 -0.4375 2.6875 0 0 Z " fill="#F0F2F0" transform="translate(114,6)"/>
<path d="M0 0 C1.32 0 2.64 0 4 0 C4 3.3 4 6.6 4 10 C0.7 10 -2.6 10 -6 10 C-6 8.68 -6 7.36 -6 6 C-4.02 6 -2.04 6 0 6 C0 4.02 0 2.04 0 0 Z " fill="#E1E2E1" transform="translate(144,138)"/>
<path d="M0 0 C0.33 0 0.66 0 1 0 C1 1.98 1 3.96 1 6 C-0.98 6 -2.96 6 -5 6 C-5 7.98 -5 9.96 -5 12 C-6.98 12 -8.96 12 -11 12 C-11 11.01 -11 10.02 -11 9 C-11.66 8.67 -12.32 8.34 -13 8 C-12.14535156 7.50628906 -11.29070312 7.01257813 -10.41015625 6.50390625 C-9.30542969 5.86324219 -8.20070313 5.22257813 -7.0625 4.5625 C-5.96035156 3.92441406 -4.85820313 3.28632813 -3.72265625 2.62890625 C-1.1716429 1.25289773 -1.1716429 1.25289773 0 0 Z " fill="#CBCFCB" transform="translate(119,132)"/>
<path d="M0 0 C1.74214158 3.48428316 2.70662843 6.31944012 3.625 10.0625 C4.01558594 11.62677734 4.01558594 11.62677734 4.4140625 13.22265625 C5 16 5 16 5 19 C3.35 19 1.7 19 0 19 C0 12.73 0 6.46 0 0 Z " fill="#F3F6F3" transform="translate(0,83)"/>
<path d="M0 0 C6.27 0 12.54 0 19 0 C19 1.65 19 3.3 19 5 C12.64549677 3.75297849 6.31672565 2.42635741 0 1 C0 0.67 0 0.34 0 0 Z " fill="#F3F6F3" transform="translate(83,0)"/>
<path d="M0 0 C6.75 5.625 6.75 5.625 9 9 C6.03 9 3.06 9 0 9 C0 6.03 0 3.06 0 0 Z " fill="#ECEFEC" transform="translate(18,123)"/>
<path d="M0 0 C5.68099789 0.9212429 11.33935016 1.96254994 17 3 C17 3.33 17 3.66 17 4 C11.39 4 5.78 4 0 4 C0 2.68 0 1.36 0 0 Z " fill="#E0E6E0" transform="translate(48,144)"/>
<path d="M0 0 C1.32 0 2.64 0 4 0 C4 5.61 4 11.22 4 17 C2.44534626 13.89069252 1.58404904 11.78638601 0.875 8.5 C0.70742187 7.7471875 0.53984375 6.994375 0.3671875 6.21875 C0 4 0 4 0 0 Z " fill="#E0E6E0" transform="translate(144,48)"/>
<path d="M0 0 C1.32 0 2.64 0 4 0 C3.32418477 6.08233706 2.26361972 12.01314152 1 18 C0.67 18 0.34 18 0 18 C0 12.06 0 6.12 0 0 Z " fill="#F5F8F5" transform="translate(0,48)"/>
<path d="M0 0 C5.61 0 11.22 0 17 0 C17 0.33 17 0.66 17 1 C11.3443706 2.34844868 5.7809725 3.36934845 0 4 C0 2.68 0 1.36 0 0 Z " fill="#F5F8F5" transform="translate(48,0)"/>
<path d="M0 0 C1.98 0 3.96 0 6 0 C6 1.98 6 3.96 6 6 C4.02 6 2.04 6 0 6 C0 4.02 0 2.04 0 0 Z " fill="#FEFEFE" transform="translate(138,138)"/>
<path d="M0 0 C1.98 0 3.96 0 6 0 C6 1.98 6 3.96 6 6 C4.02 6 2.04 6 0 6 C0 4.02 0 2.04 0 0 Z " fill="#CFD0CF" transform="translate(132,138)"/>
<path d="M0 0 C1.98 0 3.96 0 6 0 C6 1.98 6 3.96 6 6 C4.02 6 2.04 6 0 6 C0 4.02 0 2.04 0 0 Z " fill="#FDFDFD" transform="translate(126,138)"/>
<path d="M0 0 C1.98 0 3.96 0 6 0 C6 1.98 6 3.96 6 6 C4.02 6 2.04 6 0 6 C0 4.02 0 2.04 0 0 Z " fill="#D0D1D0" transform="translate(120,138)"/>
<path d="M0 0 C1.98 0 3.96 0 6 0 C6 1.98 6 3.96 6 6 C4.02 6 2.04 6 0 6 C0 4.02 0 2.04 0 0 Z " fill="#FDFDFD" transform="translate(114,138)"/>
<path d="M0 0 C1.98 0 3.96 0 6 0 C6 1.98 6 3.96 6 6 C4.02 6 2.04 6 0 6 C0 4.02 0 2.04 0 0 Z " fill="#FDFDFD" transform="translate(30,138)"/>
<path d="M0 0 C1.98 0 3.96 0 6 0 C6 1.98 6 3.96 6 6 C4.02 6 2.04 6 0 6 C0 4.02 0 2.04 0 0 Z " fill="#D0D1D0" transform="translate(24,138)"/>
<path d="M0 0 C1.98 0 3.96 0 6 0 C6 1.98 6 3.96 6 6 C4.02 6 2.04 6 0 6 C0 4.02 0 2.04 0 0 Z " fill="#FDFDFD" transform="translate(18,138)"/>
<path d="M0 0 C1.98 0 3.96 0 6 0 C6 1.98 6 3.96 6 6 C4.02 6 2.04 6 0 6 C0 4.02 0 2.04 0 0 Z " fill="#CFD0CF" transform="translate(12,138)"/>
<path d="M0 0 C1.98 0 3.96 0 6 0 C6 1.98 6 3.96 6 6 C4.02 6 2.04 6 0 6 C0 4.02 0 2.04 0 0 Z " fill="#FDFDFD" transform="translate(6,138)"/>
<path d="M0 0 C1.98 0 3.96 0 6 0 C6 1.98 6 3.96 6 6 C4.02 6 2.04 6 0 6 C0 4.02 0 2.04 0 0 Z " fill="#CFD0CF" transform="translate(138,132)"/>
<path d="M0 0 C1.98 0 3.96 0 6 0 C6 1.98 6 3.96 6 6 C4.02 6 2.04 6 0 6 C0 4.02 0 2.04 0 0 Z " fill="#FDFDFD" transform="translate(132,132)"/>
<path d="M0 0 C1.98 0 3.96 0 6 0 C6 1.98 6 3.96 6 6 C4.02 6 2.04 6 0 6 C0 4.02 0 2.04 0 0 Z " fill="#D1D2D1" transform="translate(126,132)"/>
<path d="M0 0 C1.98 0 3.96 0 6 0 C6 1.98 6 3.96 6 6 C4.02 6 2.04 6 0 6 C0 4.02 0 2.04 0 0 Z " fill="#FCFCFC" transform="translate(120,132)"/>
<path d="M0 0 C1.98 0 3.96 0 6 0 C6 1.98 6 3.96 6 6 C4.02 6 2.04 6 0 6 C0 4.02 0 2.04 0 0 Z " fill="#D1D2D1" transform="translate(18,132)"/>
<path d="M0 0 C1.98 0 3.96 0 6 0 C6 1.98 6 3.96 6 6 C4.02 6 2.04 6 0 6 C0 4.02 0 2.04 0 0 Z " fill="#FDFDFD" transform="translate(12,132)"/>
<path d="M0 0 C1.98 0 3.96 0 6 0 C6 1.98 6 3.96 6 6 C4.02 6 2.04 6 0 6 C0 4.02 0 2.04 0 0 Z " fill="#D0D1D0" transform="translate(6,132)"/>
<path d="M0 0 C1.98 0 3.96 0 6 0 C6 1.98 6 3.96 6 6 C4.02 6 2.04 6 0 6 C0 4.02 0 2.04 0 0 Z " fill="#FEFEFE" transform="translate(0,132)"/>
<path d="M0 0 C1.98 0 3.96 0 6 0 C6 1.98 6 3.96 6 6 C4.02 6 2.04 6 0 6 C0 4.02 0 2.04 0 0 Z " fill="#FDFDFD" transform="translate(138,126)"/>
<path d="M0 0 C1.98 0 3.96 0 6 0 C6 1.98 6 3.96 6 6 C4.02 6 2.04 6 0 6 C0 4.02 0 2.04 0 0 Z " fill="#D1D2D1" transform="translate(132,126)"/>
<path d="M0 0 C1.98 0 3.96 0 6 0 C6 1.98 6 3.96 6 6 C4.02 6 2.04 6 0 6 C0 4.02 0 2.04 0 0 Z " fill="#D1D2D1" transform="translate(12,126)"/>
<path d="M0 0 C1.98 0 3.96 0 6 0 C6 1.98 6 3.96 6 6 C4.02 6 2.04 6 0 6 C0 4.02 0 2.04 0 0 Z " fill="#FCFCFC" transform="translate(6,126)"/>
<path d="M0 0 C1.98 0 3.96 0 6 0 C6 1.98 6 3.96 6 6 C4.02 6 2.04 6 0 6 C0 4.02 0 2.04 0 0 Z " fill="#D0D1D0" transform="translate(0,126)"/>
<path d="M0 0 C1.98 0 3.96 0 6 0 C6 1.98 6 3.96 6 6 C4.02 6 2.04 6 0 6 C0 4.02 0 2.04 0 0 Z " fill="#D0D1D0" transform="translate(138,120)"/>
<path d="M0 0 C1.98 0 3.96 0 6 0 C6 1.98 6 3.96 6 6 C4.02 6 2.04 6 0 6 C0 4.02 0 2.04 0 0 Z " fill="#FCFCFC" transform="translate(132,120)"/>
<path d="M0 0 C1.98 0 3.96 0 6 0 C6 1.98 6 3.96 6 6 C4.02 6 2.04 6 0 6 C0 4.02 0 2.04 0 0 Z " fill="#D0D1D0" transform="translate(6,120)"/>
<path d="M0 0 C1.98 0 3.96 0 6 0 C6 1.98 6 3.96 6 6 C4.02 6 2.04 6 0 6 C0 4.02 0 2.04 0 0 Z " fill="#FDFDFD" transform="translate(0,120)"/>
<path d="M0 0 C0.33 0.66 0.66 1.32 1 2 C1.99 2 2.98 2 4 2 C4 3.98 4 5.96 4 8 C1.69 7.67 -0.62 7.34 -3 7 C-2.01 4.69 -1.02 2.38 0 0 Z " fill="#CBCFCB" transform="translate(140,106)"/>
<path d="M0 0 C1.98 0 3.96 0 6 0 C6 1.98 6 3.96 6 6 C4.02 6 2.04 6 0 6 C0 4.02 0 2.04 0 0 Z " fill="#FEFEFE" transform="translate(0,108)"/>
<path d="M0 0 C1.98 0 3.96 0 6 0 C6 1.98 6 3.96 6 6 C4.02 6 2.04 6 0 6 C0 4.02 0 2.04 0 0 Z " fill="#FEFEFE" transform="translate(0,36)"/>
<path d="M0 0 C1.98 0 3.96 0 6 0 C6 1.98 6 3.96 6 6 C4.02 6 2.04 6 0 6 C0 4.02 0 2.04 0 0 Z " fill="#FDFDFD" transform="translate(138,30)"/>
<path d="M0 0 C1.98 0 3.96 0 6 0 C6 1.98 6 3.96 6 6 C4.02 6 2.04 6 0 6 C0 4.02 0 2.04 0 0 Z " fill="#D0D1D0" transform="translate(0,30)"/>
<path d="M0 0 C1.98 0 3.96 0 6 0 C6 1.98 6 3.96 6 6 C4.02 6 2.04 6 0 6 C0 4.02 0 2.04 0 0 Z " fill="#D0D1D0" transform="translate(138,24)"/>
<path d="M0 0 C1.98 0 3.96 0 6 0 C6 1.98 6 3.96 6 6 C4.02 6 2.04 6 0 6 C0 4.02 0 2.04 0 0 Z " fill="#D1D2D1" transform="translate(6,24)"/>
<path d="M0 0 C1.98 0 3.96 0 6 0 C6 1.98 6 3.96 6 6 C4.02 6 2.04 6 0 6 C0 4.02 0 2.04 0 0 Z " fill="#FDFDFD" transform="translate(0,24)"/>
<path d="M0 0 C1.98 0 3.96 0 6 0 C6 1.98 6 3.96 6 6 C4.02 6 2.04 6 0 6 C0 4.02 0 2.04 0 0 Z " fill="#FDFDFD" transform="translate(138,18)"/>
<path d="M0 0 C1.98 0 3.96 0 6 0 C6 1.98 6 3.96 6 6 C4.02 6 2.04 6 0 6 C0 4.02 0 2.04 0 0 Z " fill="#D1D2D1" transform="translate(132,18)"/>
<path d="M0 0 C1.98 0 3.96 0 6 0 C6 1.98 6 3.96 6 6 C4.02 6 2.04 6 0 6 C0 4.02 0 2.04 0 0 Z " fill="#D1D2D1" transform="translate(12,18)"/>
<path d="M0 0 C1.98 0 3.96 0 6 0 C6 1.98 6 3.96 6 6 C4.02 6 2.04 6 0 6 C0 4.02 0 2.04 0 0 Z " fill="#FCFCFC" transform="translate(6,18)"/>
<path d="M0 0 C1.98 0 3.96 0 6 0 C6 1.98 6 3.96 6 6 C4.02 6 2.04 6 0 6 C0 4.02 0 2.04 0 0 Z " fill="#D0D1D0" transform="translate(0,18)"/>
<path d="M0 0 C1.98 0 3.96 0 6 0 C6 1.98 6 3.96 6 6 C4.02 6 2.04 6 0 6 C0 4.02 0 2.04 0 0 Z " fill="#CFD0CF" transform="translate(138,12)"/>
<path d="M0 0 C1.98 0 3.96 0 6 0 C6 1.98 6 3.96 6 6 C4.02 6 2.04 6 0 6 C0 4.02 0 2.04 0 0 Z " fill="#FDFDFD" transform="translate(132,12)"/>
<path d="M0 0 C1.98 0 3.96 0 6 0 C6 1.98 6 3.96 6 6 C4.02 6 2.04 6 0 6 C0 4.02 0 2.04 0 0 Z " fill="#D1D2D1" transform="translate(126,12)"/>
<path d="M0 0 C1.98 0 3.96 0 6 0 C6 1.98 6 3.96 6 6 C4.02 6 2.04 6 0 6 C0 4.02 0 2.04 0 0 Z " fill="#D1D2D1" transform="translate(18,12)"/>
<path d="M0 0 C1.98 0 3.96 0 6 0 C6 1.98 6 3.96 6 6 C4.02 6 2.04 6 0 6 C0 4.02 0 2.04 0 0 Z " fill="#FDFDFD" transform="translate(12,12)"/>
<path d="M0 0 C1.98 0 3.96 0 6 0 C6 1.98 6 3.96 6 6 C4.02 6 2.04 6 0 6 C0 4.02 0 2.04 0 0 Z " fill="#D0D1D0" transform="translate(6,12)"/>
<path d="M0 0 C1.98 0 3.96 0 6 0 C6 1.98 6 3.96 6 6 C4.02 6 2.04 6 0 6 C0 4.02 0 2.04 0 0 Z " fill="#FEFEFE" transform="translate(0,12)"/>
<path d="M0 0 C1.98 0 3.96 0 6 0 C6 1.98 6 3.96 6 6 C4.02 6 2.04 6 0 6 C0 4.02 0 2.04 0 0 Z " fill="#FDFDFD" transform="translate(138,6)"/>
<path d="M0 0 C1.98 0 3.96 0 6 0 C6 1.98 6 3.96 6 6 C4.02 6 2.04 6 0 6 C0 4.02 0 2.04 0 0 Z " fill="#D0D1D0" transform="translate(132,6)"/>
<path d="M0 0 C1.98 0 3.96 0 6 0 C6 1.98 6 3.96 6 6 C4.02 6 2.04 6 0 6 C0 4.02 0 2.04 0 0 Z " fill="#FCFCFC" transform="translate(126,6)"/>
<path d="M0 0 C1.98 0 3.96 0 6 0 C6 1.98 6 3.96 6 6 C4.02 6 2.04 6 0 6 C0 4.02 0 2.04 0 0 Z " fill="#D0D1D0" transform="translate(120,6)"/>
<path d="M0 0 C1.98 0 3.96 0 6 0 C6 1.98 6 3.96 6 6 C4.02 6 2.04 6 0 6 C0 4.02 0 2.04 0 0 Z " fill="#D1D2D1" transform="translate(24,6)"/>
<path d="M0 0 C1.98 0 3.96 0 6 0 C6 1.98 6 3.96 6 6 C4.02 6 2.04 6 0 6 C0 4.02 0 2.04 0 0 Z " fill="#FCFCFC" transform="translate(18,6)"/>
<path d="M0 0 C1.98 0 3.96 0 6 0 C6 1.98 6 3.96 6 6 C4.02 6 2.04 6 0 6 C0 4.02 0 2.04 0 0 Z " fill="#D0D1D0" transform="translate(12,6)"/>
<path d="M0 0 C1.98 0 3.96 0 6 0 C6 1.98 6 3.96 6 6 C4.02 6 2.04 6 0 6 C0 4.02 0 2.04 0 0 Z " fill="#FDFDFD" transform="translate(6,6)"/>
<path d="M0 0 C1.98 0 3.96 0 6 0 C6 1.98 6 3.96 6 6 C4.02 6 2.04 6 0 6 C0 4.02 0 2.04 0 0 Z " fill="#CFD0CF" transform="translate(0,6)"/>
<path d="M0 0 C1.98 0 3.96 0 6 0 C6 1.98 6 3.96 6 6 C4.02 6 2.04 6 0 6 C0 4.02 0 2.04 0 0 Z " fill="#FEFEFE" transform="translate(132,0)"/>
<path d="M0 0 C1.98 0 3.96 0 6 0 C6 1.98 6 3.96 6 6 C4.02 6 2.04 6 0 6 C0 4.02 0 2.04 0 0 Z " fill="#D0D1D0" transform="translate(126,0)"/>
<path d="M0 0 C1.98 0 3.96 0 6 0 C6 1.98 6 3.96 6 6 C4.02 6 2.04 6 0 6 C0 4.02 0 2.04 0 0 Z " fill="#FDFDFD" transform="translate(120,0)"/>
<path d="M0 0 C1.98 0 3.96 0 6 0 C6 1.98 6 3.96 6 6 C4.02 6 2.04 6 0 6 C0 4.02 0 2.04 0 0 Z " fill="#FEFEFE" transform="translate(108,0)"/>
<path d="M0 0 C1.98 0 3.96 0 6 0 C6 1.98 6 3.96 6 6 C4.02 6 2.04 6 0 6 C0 4.02 0 2.04 0 0 Z " fill="#FEFEFE" transform="translate(36,0)"/>
<path d="M0 0 C1.98 0 3.96 0 6 0 C6 1.98 6 3.96 6 6 C4.02 6 2.04 6 0 6 C0 4.02 0 2.04 0 0 Z " fill="#D0D1D0" transform="translate(30,0)"/>
<path d="M0 0 C1.98 0 3.96 0 6 0 C6 1.98 6 3.96 6 6 C4.02 6 2.04 6 0 6 C0 4.02 0 2.04 0 0 Z " fill="#FDFDFD" transform="translate(24,0)"/>
<path d="M0 0 C1.98 0 3.96 0 6 0 C6 1.98 6 3.96 6 6 C4.02 6 2.04 6 0 6 C0 4.02 0 2.04 0 0 Z " fill="#D0D1D0" transform="translate(18,0)"/>
<path d="M0 0 C1.98 0 3.96 0 6 0 C6 1.98 6 3.96 6 6 C4.02 6 2.04 6 0 6 C0 4.02 0 2.04 0 0 Z " fill="#FEFEFE" transform="translate(12,0)"/>
<path d="M0 0 C1.98 0 3.96 0 6 0 C6 1.98 6 3.96 6 6 C4.02 6 2.04 6 0 6 C0 4.02 0 2.04 0 0 Z " fill="#FFFFFF" transform="translate(0,0)"/>
<path d="M0 0 C1.98 0 3.96 0 6 0 C5.67 1.98 5.34 3.96 5 6 C3.35 6 1.7 6 0 6 C0 4.02 0 2.04 0 0 Z " fill="#FBFBFB" transform="translate(6,30)"/>
<path d="M0 0 C1.98 0 3.96 0 6 0 C6 1.65 6 3.3 6 5 C4.02 5.33 2.04 5.66 0 6 C0 4.02 0 2.04 0 0 Z " fill="#FBFBFB" transform="translate(30,6)"/>
<path d="M0 0 C2.475 0.495 2.475 0.495 5 1 C5.33 2.65 5.66 4.3 6 6 C4.02 6 2.04 6 0 6 C0 4.02 0 2.04 0 0 Z " fill="#FCFCFC" transform="translate(12,120)"/>
<path d="M0 0 C1.98 0 3.96 0 6 0 C6 1.98 6 3.96 6 6 C4.35 5.67 2.7 5.34 1 5 C0.67 3.35 0.34 1.7 0 0 Z " fill="#FCFCFC" transform="translate(120,12)"/>
<path d="M0 0 C2.9719385 1.12451727 5.33440687 2.22293791 8 4 C7.34 4 6.68 4 6 4 C6 4.66 6 5.32 6 6 C4.02 6 2.04 6 0 6 C0 4.02 0 2.04 0 0 Z " fill="#CACFCA" transform="translate(36,138)"/>
<path d="M0 0 C1.98 0 3.96 0 6 0 C6 1.98 6 3.96 6 6 C5.34 6 4.68 6 4 6 C3.67 6.66 3.34 7.32 3 8 C0 2.25 0 2.25 0 0 Z " fill="#CACFCA" transform="translate(138,36)"/>
<path d="M0 0 C0.94875 0.04125 1.8975 0.0825 2.875 0.125 C2.875 2.105 2.875 4.085 2.875 6.125 C0.235 4.805 -2.405 3.485 -5.125 2.125 C-3.125 0.125 -3.125 0.125 0 0 Z " fill="#C6CDC6" transform="translate(111.125,5.875)"/>
<path d="M0 0 C1.73684533 3.47369066 2.30084112 5.07619937 2.625 8.75 C2.69976562 9.54921875 2.77453125 10.3484375 2.8515625 11.171875 C2.90054687 11.77515625 2.94953125 12.3784375 3 13 C2.01 13 1.02 13 0 13 C0 8.71 0 4.42 0 0 Z " fill="#C5D0C5" transform="translate(0,83)"/>
<path d="M0 0 C4.29 0 8.58 0 13 0 C13 0.99 13 1.98 13 3 C11.58249437 2.88490339 10.16598831 2.75746342 8.75 2.625 C7.96109375 2.55539062 7.1721875 2.48578125 6.359375 2.4140625 C4 2 4 2 0 0 Z " fill="#C5D0C6" transform="translate(83,0)"/>
<path d="M0 0 C0 0.99 0 1.98 0 3 C-4.29 3 -8.58 3 -13 3 C-8.65194892 0.82597446 -4.86053788 0 0 0 Z " fill="#CBD4CC" transform="translate(96,145)"/>
<path d="M0 0 C1.98 0 3.96 0 6 0 C6 1.32 6 2.64 6 4 C4.02 4 2.04 4 0 4 C0 2.68 0 1.36 0 0 Z " fill="#CDCECD" transform="translate(138,144)"/>
<path d="M0 0 C1.98 0 3.96 0 6 0 C6 1.32 6 2.64 6 4 C4.02 4 2.04 4 0 4 C0 2.68 0 1.36 0 0 Z " fill="#FEFEFE" transform="translate(132,144)"/>
<path d="M0 0 C1.98 0 3.96 0 6 0 C6 1.32 6 2.64 6 4 C4.02 4 2.04 4 0 4 C0 2.68 0 1.36 0 0 Z " fill="#CFD0CF" transform="translate(126,144)"/>
<path d="M0 0 C1.98 0 3.96 0 6 0 C6 1.32 6 2.64 6 4 C4.02 4 2.04 4 0 4 C0 2.68 0 1.36 0 0 Z " fill="#FDFDFD" transform="translate(120,144)"/>
<path d="M0 0 C1.98 0 3.96 0 6 0 C6 1.32 6 2.64 6 4 C4.02 4 2.04 4 0 4 C0 2.68 0 1.36 0 0 Z " fill="#CFD0CF" transform="translate(114,144)"/>
<path d="M0 0 C1.98 0 3.96 0 6 0 C6 1.32 6 2.64 6 4 C4.02 4 2.04 4 0 4 C0 2.68 0 1.36 0 0 Z " fill="#FEFEFE" transform="translate(108,144)"/>
<path d="M0 0 C1.98 0 3.96 0 6 0 C6 1.32 6 2.64 6 4 C4.02 4 2.04 4 0 4 C0 2.68 0 1.36 0 0 Z " fill="#F8FAF8" transform="translate(96,144)"/>
<path d="M0 0 C1.98 0 3.96 0 6 0 C6 1.32 6 2.64 6 4 C4.02 4 2.04 4 0 4 C0 2.68 0 1.36 0 0 Z " fill="#FEFEFE" transform="translate(36,144)"/>
<path d="M0 0 C1.98 0 3.96 0 6 0 C6 1.32 6 2.64 6 4 C4.02 4 2.04 4 0 4 C0 2.68 0 1.36 0 0 Z " fill="#CFD0CF" transform="translate(30,144)"/>
<path d="M0 0 C1.98 0 3.96 0 6 0 C6 1.32 6 2.64 6 4 C4.02 4 2.04 4 0 4 C0 2.68 0 1.36 0 0 Z " fill="#FDFDFD" transform="translate(24,144)"/>
<path d="M0 0 C1.98 0 3.96 0 6 0 C6 1.32 6 2.64 6 4 C4.02 4 2.04 4 0 4 C0 2.68 0 1.36 0 0 Z " fill="#CFD0CF" transform="translate(18,144)"/>
<path d="M0 0 C1.98 0 3.96 0 6 0 C6 1.32 6 2.64 6 4 C4.02 4 2.04 4 0 4 C0 2.68 0 1.36 0 0 Z " fill="#FEFEFE" transform="translate(12,144)"/>
<path d="M0 0 C1.98 0 3.96 0 6 0 C6 1.32 6 2.64 6 4 C4.02 4 2.04 4 0 4 C0 2.68 0 1.36 0 0 Z " fill="#CECFCE" transform="translate(6,144)"/>
<path d="M0 0 C1.98 0 3.96 0 6 0 C6 1.32 6 2.64 6 4 C4.02 4 2.04 4 0 4 C0 2.68 0 1.36 0 0 Z " fill="#FFFFFF" transform="translate(0,144)"/>
<path d="M0 0 C1.32 0 2.64 0 4 0 C4 1.98 4 3.96 4 6 C2.68 6 1.36 6 0 6 C0 4.02 0 2.04 0 0 Z " fill="#FEFEFE" transform="translate(144,132)"/>
<path d="M0 0 C1.32 0 2.64 0 4 0 C4 1.98 4 3.96 4 6 C2.68 6 1.36 6 0 6 C0 4.02 0 2.04 0 0 Z " fill="#CFD0CF" transform="translate(144,126)"/>
<path d="M0 0 C1.32 0 2.64 0 4 0 C4 1.98 4 3.96 4 6 C2.68 6 1.36 6 0 6 C0 4.02 0 2.04 0 0 Z " fill="#FDFDFD" transform="translate(144,120)"/>
<path d="M0 0 C0.66 0.33 1.32 0.66 2 1 C2 2.98 2 4.96 2 7 C0.02 7 -1.96 7 -4 7 C-2.68 4.69 -1.36 2.38 0 0 Z " fill="#C8CEC8" transform="translate(136,113)"/>
<path d="M0 0 C1.32 0 2.64 0 4 0 C4 1.98 4 3.96 4 6 C2.68 6 1.36 6 0 6 C0 4.02 0 2.04 0 0 Z " fill="#CFD0CF" transform="translate(144,114)"/>
<path d="M0 0 C1.32 0 2.64 0 4 0 C4 1.98 4 3.96 4 6 C2.68 6 1.36 6 0 6 C0 4.02 0 2.04 0 0 Z " fill="#FEFEFE" transform="translate(144,108)"/>
<path d="M0 0 C0.33 0 0.66 0 1 0 C1 4.29 1 8.58 1 13 C0.01 13 -0.98 13 -2 13 C-1.34 8.71 -0.68 4.42 0 0 Z " fill="#CBD4CC" transform="translate(147,83)"/>
<path d="M0 0 C1.32 0 2.64 0 4 0 C4 1.98 4 3.96 4 6 C2.68 6 1.36 6 0 6 C0 4.02 0 2.04 0 0 Z " fill="#FEFEFE" transform="translate(144,36)"/>
<path d="M0 0 C1.32 0 2.64 0 4 0 C4 1.98 4 3.96 4 6 C2.68 6 1.36 6 0 6 C0 4.02 0 2.04 0 0 Z " fill="#CFD0CF" transform="translate(144,30)"/>
<path d="M0 0 C1.32 0 2.64 0 4 0 C4 1.98 4 3.96 4 6 C2.68 6 1.36 6 0 6 C0 4.02 0 2.04 0 0 Z " fill="#FDFDFD" transform="translate(144,24)"/>
<path d="M0 0 C1.32 0 2.64 0 4 0 C4 1.98 4 3.96 4 6 C2.68 6 1.36 6 0 6 C0 4.02 0 2.04 0 0 Z " fill="#CFD0CF" transform="translate(144,18)"/>
<path d="M0 0 C1.32 0 2.64 0 4 0 C4 1.98 4 3.96 4 6 C2.68 6 1.36 6 0 6 C0 4.02 0 2.04 0 0 Z " fill="#FEFEFE" transform="translate(144,12)"/>
<path d="M0 0 C1.32 0 2.64 0 4 0 C4 1.98 4 3.96 4 6 C2.68 6 1.36 6 0 6 C0 4.02 0 2.04 0 0 Z " fill="#CECFCE" transform="translate(144,6)"/>
<path d="M0 0 C1.32 0 2.64 0 4 0 C4 1.98 4 3.96 4 6 C2.68 6 1.36 6 0 6 C0 4.02 0 2.04 0 0 Z " fill="#FFFFFF" transform="translate(144,0)"/>
<path d="M0 0 C1.03115279 3.26913624 0.9638984 5.86041348 0.5625 9.25 C0.46066406 10.14203125 0.35882813 11.0340625 0.25390625 11.953125 C0.12822266 12.96632813 0.12822266 12.96632813 0 14 C-0.33 14 -0.66 14 -1 14 C-1.22226864 12.23086176 -1.42733873 10.45955629 -1.625 8.6875 C-1.74101563 7.70136719 -1.85703125 6.71523438 -1.9765625 5.69921875 C-2 3 -2 3 0 0 Z " fill="#207023" transform="translate(39,55)"/>
<path d="M0 0 C0.99 0 1.98 0 3 0 C2.34 3.96 1.68 7.92 1 12 C0.67 12 0.34 12 0 12 C0 8.04 0 4.08 0 0 Z " fill="#C6D1C7" transform="translate(0,54)"/>
<path d="M0 0 C3.63 0 7.26 0 11 0 C11 0.33 11 0.66 11 1 C7.37 1.66 3.74 2.32 0 3 C0 2.01 0 1.02 0 0 Z " fill="#C9D3CA" transform="translate(54,0)"/>
</svg>
