<?xml version="1.0" encoding="UTF-8"?>
<svg version="1.1" xmlns="http://www.w3.org/2000/svg" width="250" height="202">
<path d="M0 0 C82.5 0 165 0 250 0 C250 66.66 250 133.32 250 202 C167.5 202 85 202 0 202 C0 135.34 0 68.68 0 0 Z " fill="#1F1F1F" transform="translate(0,0)"/>
<path d="M0 0 C40.59 0 81.18 0 123 0 C117.38088445 5.61911555 117.38088445 5.61911555 113.8828125 7.9453125 C112.73727905 8.71572876 112.73727905 8.71572876 111.56860352 9.50170898 C110.76221436 10.03739502 109.9558252 10.57308105 109.125 11.125 C103.1884778 15.12509732 97.30728528 19.16608318 91.5625 23.4375 C85.00086821 28.30802641 78.32188126 32.99655381 71.61572266 37.66552734 C66.01272011 41.57303853 60.4603758 45.54270462 54.9375 49.5625 C47.7279132 54.80942778 40.40745246 59.87712748 33.01538086 64.86352539 C31.87854858 65.63297485 31.87854858 65.63297485 30.71875 66.41796875 C30.04779297 66.86938232 29.37683594 67.3207959 28.68554688 67.78588867 C26.86230574 69.03071024 26.86230574 69.03071024 25 71 C25 72.32 25 73.64 25 75 C31.27 75.33 37.54 75.66 44 76 C44 110.98 44 145.96 44 182 C40.37 182.33 36.74 182.66 33 183 C33 189.27 33 195.54 33 202 C22.11 202 11.22 202 0 202 C0 135.34 0 68.68 0 0 Z " fill="#F8F8F8" transform="translate(0,0)"/>
<path d="M0 0 C40.92 0 81.84 0 124 0 C124 66.66 124 133.32 124 202 C113.77 202 103.54 202 93 202 C93.33 195.4 93.66 188.8 94 182 C90.04 182 86.08 182 82 182 C82 147.02 82 112.04 82 76 C90.415 75.505 90.415 75.505 99 75 C98.51910885 70.28679043 98.51910885 70.28679043 96.61157227 68.53710938 C96.01916748 68.14330078 95.4267627 67.74949219 94.81640625 67.34375 C94.14561035 66.88556885 93.47481445 66.4273877 92.78369141 65.95532227 C92.05069824 65.47506592 91.31770508 64.99480957 90.5625 64.5 C88.99781156 63.43750204 87.43403808 62.37365565 85.87109375 61.30859375 C85.06269043 60.76315918 84.25428711 60.21772461 83.42138672 59.65576172 C79.59603303 57.03995725 75.86529651 54.29782962 72.125 51.5625 C65.92614266 47.05706146 59.65277769 42.67888161 53.3125 38.375 C46.9715326 34.07027608 40.73032514 29.66475935 34.57275391 25.10205078 C29.8225887 21.58649309 25.01877092 18.15316273 20.1875 14.75 C19.11302612 13.9931189 19.11302612 13.9931189 18.0168457 13.22094727 C13.28725159 9.89491086 8.54525791 6.58695314 3.78515625 3.3046875 C2 2 2 2 0 0 Z " fill="#F8F8F8" transform="translate(126,0)"/>
<path d="M0 0 C3.35582324 2.52509396 4.95690894 3.93999281 6.17684937 7.99047852 C6.4884193 11.88263887 6.45579156 15.68702335 6.28979492 19.58007812 C6.26924533 21.00347853 6.25360289 22.42695743 6.24263 23.85046387 C6.20087834 27.57458162 6.09308572 31.29388292 5.97088623 35.01611328 C5.85779246 38.82323029 5.80800244 42.63113602 5.75268555 46.43945312 C5.63515932 53.8947604 5.44776741 61.34611635 5.21557617 68.79882812 C4.45994385 68.31599365 3.70431152 67.83315918 2.92578125 67.33569336 C1.93473389 66.70348877 0.94368652 66.07128418 -0.07739258 65.41992188 C-1.0598999 64.7927124 -2.04240723 64.16550293 -3.0546875 63.51928711 C-9.94424997 59.17703268 -16.33879003 57.59398094 -24.52481079 58.25486755 C-27.74344446 59.02969483 -30.5514488 60.42708051 -33.53979492 61.84204102 C-34.70948822 62.39267715 -35.87918152 62.94331329 -37.08432007 63.51063538 C-38.42087143 64.14829079 -38.42087143 64.14829079 -39.78442383 64.79882812 C-39.96995973 56.54085028 -40.11201291 48.28374572 -40.1989212 40.02419758 C-40.24063871 36.18864034 -40.29719342 32.3545108 -40.38793945 28.51977539 C-40.47500449 24.81732919 -40.52272385 21.11625376 -40.54344177 17.41286278 C-40.55820038 16.00169474 -40.58702451 14.59060011 -40.63026428 13.18001747 C-40.95560644 2.1247299 -40.95560644 2.1247299 -38.0534668 -1.16079712 C-35.99062576 -2.47900847 -34.08657037 -3.38478814 -31.78442383 -4.20117188 C-30.81504883 -4.63429688 -29.84567383 -5.06742187 -28.84692383 -5.51367188 C-18.65180976 -7.80237095 -8.81575651 -5.46025341 0 0 Z " fill="#030303" transform="translate(168.784423828125,98.201171875)"/>
<path d="M0 0 C1 1 1 1 1.12025452 3.54994202 C1.11803391 4.68467453 1.11581329 5.81940704 1.11352539 6.98852539 C1.11344986 8.26977798 1.11337433 9.55103058 1.11329651 10.87110901 C1.10818909 12.27995848 1.10297309 13.68880756 1.09765625 15.09765625 C1.09579202 16.53112234 1.09436814 17.96458907 1.09336853 19.39805603 C1.08954372 23.17759957 1.07971377 26.9571049 1.06866455 30.7366333 C1.05844963 34.59069298 1.05387074 38.44475882 1.04882812 42.29882812 C1.03809146 49.86590287 1.02101549 57.43294609 1 65 C0.14349854 64.57557617 -0.71300293 64.15115234 -1.59545898 63.71386719 C-3.30971069 62.88870605 -3.30971069 62.88870605 -5.05859375 62.046875 C-6.74553345 61.22461426 -6.74553345 61.22461426 -8.46655273 60.38574219 C-15.43957015 57.6510744 -22.31629797 57.65577189 -29.33984375 60.21875 C-34.52647888 62.73192796 -39.21595212 65.79907908 -44 69 C-44.1856693 60.75929327 -44.32765652 52.51946531 -44.41449738 44.27718163 C-44.45618594 40.4494966 -44.5126873 36.62324606 -44.60351562 32.79638672 C-44.69068453 29.10041942 -44.73832177 25.40582802 -44.75901794 21.7089119 C-44.773758 20.3013607 -44.80254576 18.89388181 -44.84584045 17.4869194 C-45.17058591 6.49250126 -45.17058591 6.49250126 -42.31079102 2.84625244 C-40.26453261 1.27554886 -38.31938954 0.1191644 -36 -1 C-34.62447019 -1.7698875 -33.2493872 -2.54057459 -31.875 -3.3125 C-21.67294885 -8.50109683 -9.02178812 -6.48167302 0 0 Z " fill="#020202" transform="translate(122,98)"/>
<path d="M0 0 C30.69 0 61.38 0 93 0 C93 10.89 93 21.78 93 33 C91.02 32.505 91.02 32.505 89 32 C89 30.68 89 29.36 89 28 C87.68 28 86.36 28 85 28 C85 26.68 85 25.36 85 24 C83.68 24 82.36 24 81 24 C81 22.68 81 21.36 81 20 C80.030625 20.2475 79.06125 20.495 78.0625 20.75 C73.73923284 21.39892854 70.88460185 19.862011 67.0546875 17.9921875 C61.33955695 15.23240963 54.33144679 14.98272753 48.30078125 16.82421875 C44.58379397 18.28388237 41.3306615 19.779559 38 22 C37.5218788 24.62293289 37.5218788 24.62293289 37.56762695 27.73486328 C37.54783279 28.93595734 37.52803864 30.13705139 37.50764465 31.37454224 C37.50125473 32.67664642 37.49486481 33.97875061 37.48828125 35.3203125 C37.47144088 36.6626857 37.45329151 38.00504306 37.43388367 39.34738159 C37.38630693 42.88188734 37.35654775 46.41632893 37.33044434 49.9510498 C37.30067711 53.55733925 37.25413377 57.16340739 37.20898438 60.76953125 C37.12286444 67.84622767 37.05555812 74.92299237 37 82 C36.01 81.01 36.01 81.01 35 80 C34.505 81.485 34.505 81.485 34 83 C33.34 83 32.68 83 32 83 C31.67 83.99 31.34 84.98 31 86 C30.505 54.32 30.505 54.32 30 22 C21.40774325 17.21895416 21.40774325 17.21895416 12.4375 15.6875 C11.71498047 15.61466797 10.99246094 15.54183594 10.24804688 15.46679688 C8.50039328 15.2931889 6.75035064 15.14389386 5 15 C5 13.68 5 12.36 5 11 C6.32 11 7.64 11 9 11 C9 9.68 9 8.36 9 7 C7.68 7 6.36 7 5 7 C5 5.68 5 4.36 5 3 C3.68 3 2.36 3 1 3 C0.67 2.01 0.34 1.02 0 0 Z M86 32 C86.99 32 87.98 32 89 32 C89 33.65 89 35.3 89 37 C87.68 37 86.36 37 85 37 C85.33 35.35 85.66 33.7 86 32 Z " fill="#F9F9F9" transform="translate(92,77)"/>
<path d="M0 0 C4.29 0 8.58 0 13 0 C13 0.99 13 1.98 13 3 C14.32 3 15.64 3 17 3 C17 4.32 17 5.64 17 7 C15.68 7 14.36 7 13 7 C13 8.32 13 9.64 13 11 C12.01 11.33 11.02 11.66 10 12 C9.26676204 14.01508358 9.26676204 14.01508358 9 16 C10.32 16 11.64 16 13 16 C13 17.32 13 18.64 13 20 C11.68 20 10.36 20 9 20 C9 21.32 9 22.64 9 24 C10.32 24.33 11.64 24.66 13 25 C12.67 25.33 12.34 25.66 12 26 C11.87630675 27.9935143 11.8220361 29.9913647 11.79467773 31.98852539 C11.77473251 33.26977798 11.75478729 34.55103058 11.73423767 35.87110901 C11.71725203 37.27995684 11.70037327 38.68880595 11.68359375 40.09765625 C11.66303085 41.53112905 11.64203456 42.96459569 11.62062073 44.39805603 C11.56533141 48.1775312 11.51595255 51.9570617 11.46777344 55.7366333 C11.41760835 59.59074855 11.36189629 63.44478309 11.30664062 67.29882812 C11.19897521 74.86581714 11.09754903 82.4328731 11 90 C8.03 90.495 8.03 90.495 5 91 C5 89.68 5 88.36 5 87 C3.68 87 2.36 87 1 87 C0.67 88.32 0.34 89.64 0 91 C0 60.97 0 30.94 0 0 Z " fill="#F9F9F9" transform="translate(67,77)"/>
<path d="M0 0 C39.6 0 79.2 0 120 0 C120 0.33 120 0.66 120 1 C73.965 1.495 73.965 1.495 27 2 C27 2.66 27 3.32 27 4 C28.32 4 29.64 4 31 4 C31 5.32 31 6.64 31 8 C32.32 8 33.64 8 35 8 C35 9.32 35 10.64 35 12 C33.68 12 32.36 12 31 12 C31 13.32 31 14.64 31 16 C31.99 16.33 32.98 16.66 34 17 C32.2984375 17.3403125 32.2984375 17.3403125 30.5625 17.6875 C25.52353924 18.9292439 19.73240538 21.26759462 16 25 C14.00041636 25.04080783 11.99954746 25.04254356 10 25 C10 23.68 10 22.36 10 21 C11.32 21 12.64 21 14 21 C14 19.68 14 18.36 14 17 C12.68 17 11.36 17 10 17 C10.33 15.35 10.66 13.7 11 12 C11.99 12 12.98 12 14 12 C14 10.68 14 9.36 14 8 C15.32 8 16.64 8 18 8 C18 6.68 18 5.36 18 4 C16.68 4 15.36 4 14 4 C14 3.01 14 2.02 14 1 C9.71 1 5.42 1 1 1 C1 35.32 1 69.64 1 105 C40.27 105 79.54 105 120 105 C120 105.33 120 105.66 120 106 C80.4 106 40.8 106 0 106 C0 71.02 0 36.04 0 0 Z " fill="#CDCDCD" transform="translate(66,76)"/>
<path d="M0 0 C4.95 0 9.9 0 15 0 C15 0.33 15 0.66 15 1 C9.06 1.495 9.06 1.495 3 2 C3 2.66 3 3.32 3 4 C4.32 4 5.64 4 7 4 C7 5.32 7 6.64 7 8 C8.32 8 9.64 8 11 8 C11 9.32 11 10.64 11 12 C9.68 12 8.36 12 7 12 C7 13.65 7 15.3 7 17 C8.32 17 9.64 17 11 17 C11 18.32 11 19.64 11 21 C12.32 21 13.64 21 15 21 C15 22.32 15 23.64 15 25 C13.68 25 12.36 25 11 25 C11 26.32 11 27.64 11 29 C9.68 29 8.36 29 7 29 C7 30.32 7 31.64 7 33 C5.68 33 4.36 33 3 33 C3 31.68 3 30.36 3 29 C2.34 29 1.68 29 1 29 C1 54.08 1 79.16 1 105 C4.3 105 7.6 105 11 105 C11 105.33 11 105.66 11 106 C7.37 106 3.74 106 0 106 C0 71.02 0 36.04 0 0 Z " fill="#F6F6F6" transform="translate(208,76)"/>
<path d="M0 0 C0.33 0 0.66 0 1 0 C1 34.32 1 68.64 1 104 C0.67 104 0.34 104 0 104 C0 87.17 0 70.34 0 53 C-1.32 53 -2.64 53 -4 53 C-4 51.68 -4 50.36 -4 49 C-5.32 49 -6.64 49 -8 49 C-8 47.68 -8 46.36 -8 45 C-8.99 45 -9.98 45 -11 45 C-11.01417969 43.68644531 -11.02835938 42.37289062 -11.04296875 41.01953125 C-11.08987988 39.28381949 -11.13812721 37.54814348 -11.1875 35.8125 C-11.19620117 34.51602539 -11.19620117 34.51602539 -11.20507812 33.19335938 C-11.39178684 27.46448661 -11.39178684 27.46448661 -14.55078125 22.88671875 C-15.35902344 22.26410156 -16.16726562 21.64148438 -17 21 C-15.35 20.67 -13.7 20.34 -12 20 C-12 21.32 -12 22.64 -12 24 C-10.68 24 -9.36 24 -8 24 C-8 25.32 -8 26.64 -8 28 C-6.68 28 -5.36 28 -4 28 C-4 29.32 -4 30.64 -4 32 C-3.01 32 -2.02 32 -1 32 C-0.67 21.44 -0.34 10.88 0 0 Z M-7 32 C-7.33 33.65 -7.66 35.3 -8 37 C-6.68 37 -5.36 37 -4 37 C-4 35.35 -4 33.7 -4 32 C-4.99 32 -5.98 32 -7 32 Z " fill="#EBEBEB" transform="translate(185,77)"/>
<path d="M0 0 C4.95 0 9.9 0 15 0 C15 0.33 15 0.66 15 1 C9.06 1.495 9.06 1.495 3 2 C3 2.66 3 3.32 3 4 C2.34 4 1.68 4 1 4 C1 37.33 1 70.66 1 105 C4.3 105 7.6 105 11 105 C11 105.33 11 105.66 11 106 C7.37 106 3.74 106 0 106 C0 71.02 0 36.04 0 0 Z " fill="#E5E5E5" transform="translate(208,76)"/>
<path d="M0 0 C0.66 0 1.32 0 2 0 C3.26864164 3.80592493 3.22320072 7.40870641 3.25 11.375 C3.270625 12.13039063 3.29125 12.88578125 3.3125 13.6640625 C3.34451548 18.24227558 3.02899085 21.3093364 0 25 C-0.66 25 -1.32 25 -2 25 C-2 23.68 -2 22.36 -2 21 C-1.34 21 -0.68 21 0 21 C0 19.68 0 18.36 0 17 C-0.66 17 -1.32 17 -2 17 C-2 15.68 -2 14.36 -2 13 C-1.34 13 -0.68 13 0 13 C0 11.68 0 10.36 0 9 C-0.66 9 -1.32 9 -2 9 C-2 7.35 -2 5.7 -2 4 C-1.34 4 -0.68 4 0 4 C0 2.68 0 1.36 0 0 Z " fill="#F7F7F7" transform="translate(126,105)"/>
<path d="M0 0 C5.452999 1.56818272 9.76486783 3.03810217 14 7 C12.68 7.33 11.36 7.66 10 8 C10 9.32 10 10.64 10 12 C8.68 12 7.36 12 6 12 C6 10.68 6 9.36 6 8 C4.68 8 3.36 8 2 8 C1.34 5.36 0.68 2.72 0 0 Z " fill="#F4F4F4" transform="translate(154,156)"/>
<path d="M0 0 C1.32 0 2.64 0 4 0 C4 1.32 4 2.64 4 4 C5.32 4 6.64 4 8 4 C8 5.32 8 6.64 8 8 C9.32 8 10.64 8 12 8 C12.33 9.65 12.66 11.3 13 13 C9.27080468 13 7.89168784 11.92779189 4.8125 9.875 C3.91144531 9.29492188 3.01039063 8.71484375 2.08203125 8.1171875 C0 6 0 6 -0.30078125 2.7578125 C-0.20152344 1.84773437 -0.10226563 0.93765625 0 0 Z " fill="#EFEFEF" transform="translate(152,13)"/>
<path d="M0 0 C1.32 0 2.64 0 4 0 C4 3.96 4 7.92 4 12 C1.525 11.01 1.525 11.01 -1 10 C-3.32597511 9.6186926 -5.65912158 9.27539746 -8 9 C-6.68 8.67 -5.36 8.34 -4 8 C-3.67 6.68 -3.34 5.36 -3 4 C-2.01 4 -1.02 4 0 4 C0 2.68 0 1.36 0 0 Z " fill="#F5F5F5" transform="translate(114,84)"/>
<path d="M0 0 C1.32 0 2.64 0 4 0 C4 1.32 4 2.64 4 4 C3.01 4.33 2.02 4.66 1 5 C0.855625 5.639375 0.71125 6.27875 0.5625 6.9375 C0 9 0 9 -1.5625 10.375 C-5.37945389 11.35370613 -8.2571393 10.12285821 -12 9 C-10.68 8.67 -9.36 8.34 -8 8 C-8 6.68 -8 5.36 -8 4 C-5.36 4 -2.72 4 0 4 C0 2.68 0 1.36 0 0 Z " fill="#F3F3F3" transform="translate(164,84)"/>
<path d="M0 0 C1.32 0 2.64 0 4 0 C4 1.32 4 2.64 4 4 C5.32 4 6.64 4 8 4 C8 5.32 8 6.64 8 8 C9.32 8 10.64 8 12 8 C11.67 9.65 11.34 11.3 11 13 C9.15140108 11.98567137 7.32136144 10.93746084 5.5 9.875 C4.4790625 9.29492188 3.458125 8.71484375 2.40625 8.1171875 C0 6 0 6 -0.34375 2.7578125 C-0.2303125 1.84773438 -0.116875 0.93765625 0 0 Z " fill="#EFEFEF" transform="translate(211,55)"/>
<path d="M0 0 C1.32 0 2.64 0 4 0 C4.34375 2.7578125 4.34375 2.7578125 4 6 C1.59375 8.1171875 1.59375 8.1171875 -1.5 9.875 C-3.03140625 10.76832031 -3.03140625 10.76832031 -4.59375 11.6796875 C-5.3878125 12.11539063 -6.181875 12.55109375 -7 13 C-7.33 11.68 -7.66 10.36 -8 9 C-6.68 8.67 -5.36 8.34 -4 8 C-4 6.68 -4 5.36 -4 4 C-2.68 4 -1.36 4 0 4 C0 2.68 0 1.36 0 0 Z " fill="#F0F0F0" transform="translate(59,38)"/>
<path d="M0 0 C0 0.99 0 1.98 0 3 C-3.96 3 -7.92 3 -12 3 C-12 4.32 -12 5.64 -12 7 C-13.32 7 -14.64 7 -16 7 C-16 5.35 -16 3.7 -16 2 C-10.23826317 -1.06475363 -6.37259801 -1.19937786 0 0 Z " fill="#EEEEEE" transform="translate(105,157)"/>
<path d="M0 0 C1.32 0 2.64 0 4 0 C4 1.32 4 2.64 4 4 C5.32 4 6.64 4 8 4 C8 5.32 8 6.64 8 8 C9.32 8 10.64 8 12 8 C12 9.65 12 11.3 12 13 C10.22611914 11.90073597 8.45600316 10.79539498 6.6875 9.6875 C5.70136719 9.07261719 4.71523437 8.45773438 3.69921875 7.82421875 C1.49827965 6.33675339 -0.23328988 4.9596614 -2 3 C-1.34 2.01 -0.68 1.02 0 0 Z " fill="#EDEDED" transform="translate(186,38)"/>
<path d="M0 0 C5.94 0 11.88 0 18 0 C18 9 18 9 16 12 C14.68 12 13.36 12 12 12 C12 10.68 12 9.36 12 8 C13.32 8 14.64 8 16 8 C16 6.68 16 5.36 16 4 C14.68 4 13.36 4 12 4 C12 3.01 12 2.02 12 1 C8.04 1 4.08 1 0 1 C0 0.67 0 0.34 0 0 Z " fill="#D9D9D9" transform="translate(26,76)"/>
<path d="M0 0 C7.78740157 2.35433071 7.78740157 2.35433071 11 5 C11.3125 8.1875 11.3125 8.1875 11 11 C9.68 11 8.36 11 7 11 C7 9.68 7 8.36 7 7 C5.68 7 4.36 7 3 7 C3 5.68 3 4.36 3 3 C1.68 3 0.36 3 -1 3 C-0.67 2.01 -0.34 1.02 0 0 Z " fill="#F0F0F0" transform="translate(111,157)"/>
<path d="M0 0 C1.32 0 2.64 0 4 0 C4 1.32 4 2.64 4 4 C3.01 4.33 2.02 4.66 1 5 C0.54625 5.969375 0.0925 6.93875 -0.375 7.9375 C-2 11 -2 11 -4.6875 12.375 C-5.450625 12.58125 -6.21375 12.7875 -7 13 C-7.33 11.68 -7.66 10.36 -8 9 C-6.68 9 -5.36 9 -4 9 C-3.67 7.35 -3.34 5.7 -3 4 C-2.01 4 -1.02 4 0 4 C0 2.68 0 1.36 0 0 Z " fill="#F1F1F1" transform="translate(139,84)"/>
<path d="M0 0 C2.97 0 5.94 0 9 0 C5.32442148 4.00972202 1.81033104 6.45335415 -3 9 C-3.33 7.35 -3.66 5.7 -4 4 C-2.68 4 -1.36 4 0 4 C0 2.68 0 1.36 0 0 Z " fill="#F1F1F1" transform="translate(114,0)"/>
<path d="M0 0 C1.32 0 2.64 0 4 0 C4 1.32 4 2.64 4 4 C5.32 4 6.64 4 8 4 C8 5.32 8 6.64 8 8 C5.8125 8.8125 5.8125 8.8125 3 9 C0.1875 6.5625 0.1875 6.5625 -2 4 C-1.34 4 -0.68 4 0 4 C0 2.68 0 1.36 0 0 Z " fill="#F1F1F1" transform="translate(177,30)"/>
<path d="M0 0 C2 3 2 3 3 6 C4.32 5.34 5.64 4.68 7 4 C7.33 5.32 7.66 6.64 8 8 C6.56465159 8.2226746 5.12654475 8.42761906 3.6875 8.625 C2.88699219 8.74101562 2.08648437 8.85703125 1.26171875 8.9765625 C-1 9 -1 9 -4 7 C-3.67 6.01 -3.34 5.02 -3 4 C-2.34 4 -1.68 4 -1 4 C-0.67 2.68 -0.34 1.36 0 0 Z " fill="#F2F2F2" transform="translate(127,156)"/>
<path d="M0 0 C2.97 0 5.94 0 9 0 C9 1.32 9 2.64 9 4 C10.32 4 11.64 4 13 4 C13 5.65 13 7.3 13 9 C11.2063257 7.8782037 9.4151227 6.75245517 7.625 5.625 C6.12839844 4.68527344 6.12839844 4.68527344 4.6015625 3.7265625 C2 2 2 2 0 0 Z " fill="#EDEDED" transform="translate(126,0)"/>
<path d="M0 0 C0.99 0 1.98 0 3 0 C3.33 1.32 3.66 2.64 4 4 C-0.5 8 -0.5 8 -5 8 C-4.67 6.68 -4.34 5.36 -4 4 C-3.01 4 -2.02 4 -1 4 C-0.67 2.68 -0.34 1.36 0 0 Z " fill="#F1F1F1" transform="translate(26,63)"/>
<path d="M0 0 C0.99 0 1.98 0 3 0 C3.25 2.3125 3.25 2.3125 3 5 C1.25 6.8125 1.25 6.8125 -1 8 C-2.32 8 -3.64 8 -5 8 C-4.67 6.68 -4.34 5.36 -4 4 C-3.01 4 -2.02 4 -1 4 C-0.67 2.68 -0.34 1.36 0 0 Z " fill="#F0F0F0" transform="translate(85,21)"/>
<path d="M0 0 C1.32 0.66 2.64 1.32 4 2 C4 3.32 4 4.64 4 6 C3.01 6.33 2.02 6.66 1 7 C0.67 7.99 0.34 8.98 0 10 C-1.32 10 -2.64 10 -4 10 C-4 8.68 -4 7.36 -4 6 C-2.68 6 -1.36 6 0 6 C-0.2784375 4.7934375 -0.2784375 4.7934375 -0.5625 3.5625 C-0.706875 2.716875 -0.85125 1.87125 -1 1 C-0.67 0.67 -0.34 0.34 0 0 Z " fill="#F1F1F1" transform="translate(84,162)"/>
<path d="M0 0 C1.32 0 2.64 0 4 0 C4 1.32 4 2.64 4 4 C3.01 4.33 2.02 4.66 1 5 C0.26676204 7.01508358 0.26676204 7.01508358 0 9 C-1.32 9 -2.64 9 -4 9 C-4 7.35 -4 5.7 -4 4 C-2.68 4 -1.36 4 0 4 C0 2.68 0 1.36 0 0 Z " fill="#F3F3F3" transform="translate(181,84)"/>
<path d="M0 0 C1.32 0 2.64 0 4 0 C4 1.32 4 2.64 4 4 C3.01 4.33 2.02 4.66 1 5 C0.26676204 7.01508358 0.26676204 7.01508358 0 9 C-1.32 9 -2.64 9 -4 9 C-3.67 7.35 -3.34 5.7 -3 4 C-2.01 4 -1.02 4 0 4 C0 2.68 0 1.36 0 0 Z " fill="#F2F2F2" transform="translate(21,185)"/>
<path d="M0 0 C1.32 0 2.64 0 4 0 C4 1.32 4 2.64 4 4 C3.360625 4.103125 2.72125 4.20625 2.0625 4.3125 C1.381875 4.539375 0.70125 4.76625 0 5 C-0.33 5.99 -0.66 6.98 -1 8 C-2.32 8 -3.64 8 -5 8 C-5 6.68 -5 5.36 -5 4 C-3.68 4 -2.36 4 -1 4 C-0.67 2.68 -0.34 1.36 0 0 Z " fill="#F2F2F2" transform="translate(245,139)"/>
<path d="M0 0 C1.32 0 2.64 0 4 0 C4 1.32 4 2.64 4 4 C3.360625 4.103125 2.72125 4.20625 2.0625 4.3125 C1.381875 4.539375 0.70125 4.76625 0 5 C-0.33 5.99 -0.66 6.98 -1 8 C-2.32 8 -3.64 8 -5 8 C-5 6.68 -5 5.36 -5 4 C-3.68 4 -2.36 4 -1 4 C-0.67 2.68 -0.34 1.36 0 0 Z " fill="#F2F2F2" transform="translate(9,139)"/>
<path d="M0 0 C1.32 0 2.64 0 4 0 C4 1.32 4 2.64 4 4 C3.01 4.33 2.02 4.66 1 5 C0.26676204 7.01508358 0.26676204 7.01508358 0 9 C-1.32 9 -2.64 9 -4 9 C-3.67 7.35 -3.34 5.7 -3 4 C-2.01 4 -1.02 4 0 4 C0 2.68 0 1.36 0 0 Z " fill="#F2F2F2" transform="translate(236,105)"/>
<path d="M0 0 C1.32 0 2.64 0 4 0 C4 1.32 4 2.64 4 4 C3.01 4.33 2.02 4.66 1 5 C0.26676204 7.01508358 0.26676204 7.01508358 0 9 C-1.32 9 -2.64 9 -4 9 C-3.67 7.35 -3.34 5.7 -3 4 C-2.01 4 -1.02 4 0 4 C0 2.68 0 1.36 0 0 Z " fill="#F2F2F2" transform="translate(21,84)"/>
<path d="M0 0 C1.32 0 2.64 0 4 0 C4 1.32 4 2.64 4 4 C3.360625 4.103125 2.72125 4.20625 2.0625 4.3125 C1.381875 4.539375 0.70125 4.76625 0 5 C-0.33 5.99 -0.66 6.98 -1 8 C-2.32 8 -3.64 8 -5 8 C-5 6.68 -5 5.36 -5 4 C-3.68 4 -2.36 4 -1 4 C-0.67 2.68 -0.34 1.36 0 0 Z " fill="#F2F2F2" transform="translate(245,38)"/>
<path d="M0 0 C1.32 0 2.64 0 4 0 C4 1.32 4 2.64 4 4 C3.360625 4.103125 2.72125 4.20625 2.0625 4.3125 C1.381875 4.539375 0.70125 4.76625 0 5 C-0.33 5.99 -0.66 6.98 -1 8 C-2.32 8 -3.64 8 -5 8 C-5 6.68 -5 5.36 -5 4 C-3.68 4 -2.36 4 -1 4 C-0.67 2.68 -0.34 1.36 0 0 Z " fill="#F2F2F2" transform="translate(9,38)"/>
<path d="M0 0 C1.32 0 2.64 0 4 0 C4 1.32 4 2.64 4 4 C3.01 4.33 2.02 4.66 1 5 C0.26676204 7.01508358 0.26676204 7.01508358 0 9 C-1.32 9 -2.64 9 -4 9 C-3.67 7.35 -3.34 5.7 -3 4 C-2.01 4 -1.02 4 0 4 C0 2.68 0 1.36 0 0 Z " fill="#F2F2F2" transform="translate(236,4)"/>
<path d="M0 0 C1.32 0 2.64 0 4 0 C4 1.32 4 2.64 4 4 C3.01 4.33 2.02 4.66 1 5 C0.26676204 7.01508358 0.26676204 7.01508358 0 9 C-1.32 9 -2.64 9 -4 9 C-3.67 7.35 -3.34 5.7 -3 4 C-2.01 4 -1.02 4 0 4 C0 2.68 0 1.36 0 0 Z " fill="#F2F2F2" transform="translate(177,4)"/>
<path d="M0 0 C1.32 0 2.64 0 4 0 C4 1.32 4 2.64 4 4 C3.01 4.33 2.02 4.66 1 5 C0.26676204 7.01508358 0.26676204 7.01508358 0 9 C-1.32 9 -2.64 9 -4 9 C-3.67 7.35 -3.34 5.7 -3 4 C-2.01 4 -1.02 4 0 4 C0 2.68 0 1.36 0 0 Z " fill="#F2F2F2" transform="translate(59,4)"/>
<path d="M0 0 C2.97 0.99 5.94 1.98 9 3 C7.75 5.5 7.75 5.5 6 8 C4.68 8 3.36 8 2 8 C1.34 5.36 0.68 2.72 0 0 Z " fill="#EAEAEA" transform="translate(154,156)"/>
<path d="M0 0 C0.99 0 1.98 0 3 0 C3 1.32 3 2.64 3 4 C2.01 4.33 1.02 4.66 0 5 C-0.33 5.99 -0.66 6.98 -1 8 C-2.32 8 -3.64 8 -5 8 C-4.67 6.68 -4.34 5.36 -4 4 C-3.01 4 -2.02 4 -1 4 C-0.67 2.68 -0.34 1.36 0 0 Z " fill="#F2F2F2" transform="translate(144,164)"/>
<path d="M0 0 C0.99 0 1.98 0 3 0 C3 1.32 3 2.64 3 4 C2.01 4.33 1.02 4.66 0 5 C-0.33 5.99 -0.66 6.98 -1 8 C-2.32 8 -3.64 8 -5 8 C-4.67 6.68 -4.34 5.36 -4 4 C-3.01 4 -2.02 4 -1 4 C-0.67 2.68 -0.34 1.36 0 0 Z " fill="#F2F2F2" transform="translate(26,164)"/>
<path d="M0 0 C0.99 0 1.98 0 3 0 C3 1.32 3 2.64 3 4 C2.01 4.33 1.02 4.66 0 5 C-0.33 5.99 -0.66 6.98 -1 8 C-2.32 8 -3.64 8 -5 8 C-4.67 6.68 -4.34 5.36 -4 4 C-3.01 4 -2.02 4 -1 4 C-0.67 2.68 -0.34 1.36 0 0 Z " fill="#F2F2F2" transform="translate(224,143)"/>
<path d="M0 0 C0.99 0 1.98 0 3 0 C3 1.32 3 2.64 3 4 C2.01 4.33 1.02 4.66 0 5 C-0.33 5.99 -0.66 6.98 -1 8 C-2.32 8 -3.64 8 -5 8 C-4.67 6.68 -4.34 5.36 -4 4 C-3.01 4 -2.02 4 -1 4 C-0.67 2.68 -0.34 1.36 0 0 Z " fill="#F2F2F2" transform="translate(26,122)"/>
<path d="M0 0 C4.95 0 9.9 0 15 0 C15 0.33 15 0.66 15 1 C9.06 1.495 9.06 1.495 3 2 C3 2.66 3 3.32 3 4 C2.34 4 1.68 4 1 4 C1 6.64 1 9.28 1 12 C0.67 12 0.34 12 0 12 C0 8.04 0 4.08 0 0 Z " fill="#C2C2C2" transform="translate(208,76)"/>
<path d="M0 0 C0.99 0 1.98 0 3 0 C3 1.32 3 2.64 3 4 C2.01 4.33 1.02 4.66 0 5 C-0.33 5.99 -0.66 6.98 -1 8 C-2.32 8 -3.64 8 -5 8 C-4.67 6.68 -4.34 5.36 -4 4 C-3.01 4 -2.02 4 -1 4 C-0.67 2.68 -0.34 1.36 0 0 Z " fill="#F2F2F2" transform="translate(224,42)"/>
<path d="M0 0 C0.99 0 1.98 0 3 0 C3 1.32 3 2.64 3 4 C2.01 4.33 1.02 4.66 0 5 C-0.33 5.99 -0.66 6.98 -1 8 C-2.32 8 -3.64 8 -5 8 C-4.67 6.68 -4.34 5.36 -4 4 C-3.01 4 -2.02 4 -1 4 C-0.67 2.68 -0.34 1.36 0 0 Z " fill="#F2F2F2" transform="translate(47,42)"/>
<path d="M0 0 C0.99 0 1.98 0 3 0 C3 1.32 3 2.64 3 4 C2.01 4.33 1.02 4.66 0 5 C-0.33 5.99 -0.66 6.98 -1 8 C-2.32 8 -3.64 8 -5 8 C-4.67 6.68 -4.34 5.36 -4 4 C-3.01 4 -2.02 4 -1 4 C-0.67 2.68 -0.34 1.36 0 0 Z " fill="#F2F2F2" transform="translate(26,21)"/>
<path d="M0 0 C1.32 0 2.64 0 4 0 C4.66 2.31 5.32 4.62 6 7 C2.7 6.34 -0.6 5.68 -4 5 C-2.68 4.67 -1.36 4.34 0 4 C0 2.68 0 1.36 0 0 Z " fill="#E5E5E5" transform="translate(156,88)"/>
<path d="M0 0 C1.32 0 2.64 0 4 0 C4 1.32 4 2.64 4 4 C5.32 4 6.64 4 8 4 C8 5.32 8 6.64 8 8 C7.34 8 6.68 8 6 8 C6 7.34 6 6.68 6 6 C5.21625 5.731875 4.4325 5.46375 3.625 5.1875 C1 4 1 4 -1 1 C-0.67 0.67 -0.34 0.34 0 0 Z " fill="#EDEDED" transform="translate(169,97)"/>
<path d="M0 0 C0.33 0 0.66 0 1 0 C1 4.62 1 9.24 1 14 C1.66 14 2.32 14 3 14 C3 15.32 3 16.64 3 18 C1.68 17.67 0.36 17.34 -1 17 C-0.67 11.39 -0.34 5.78 0 0 Z " fill="#EBEBEB" transform="translate(220,184)"/>
<path d="M0 0 C1.32 0 2.64 0 4 0 C4 1.32 4 2.64 4 4 C4.66 4.33 5.32 4.66 6 5 C2.37 5 -1.26 5 -5 5 C-5 4.67 -5 4.34 -5 4 C-3.35 4 -1.7 4 0 4 C0 2.68 0 1.36 0 0 Z " fill="#D4D4D4" transform="translate(38,177)"/>
<path d="M0 0 C1.32 0 2.64 0 4 0 C4 1.32 4 2.64 4 4 C3.01 4.33 2.02 4.66 1 5 C0.26676204 7.01508358 0.26676204 7.01508358 0 9 C-0.66 9 -1.32 9 -2 9 C-2 7.35 -2 5.7 -2 4 C-1.34 4 -0.68 4 0 4 C0 2.68 0 1.36 0 0 Z " fill="#F2F2F2" transform="translate(177,105)"/>
<path d="M0 0 C-1.125 1.5 -1.125 1.5 -3 3 C-6.1875 3.1875 -6.1875 3.1875 -9 3 C-9 2.34 -9 1.68 -9 1 C-5.57367167 -0.61798838 -3.61944899 -1.34053666 0 0 Z " fill="#E9E9E9" transform="translate(146,157)"/>
<path d="M0 0 C1.65 0 3.3 0 5 0 C5 1.32 5 2.64 5 4 C3.35 4 1.7 4 0 4 C0 2.68 0 1.36 0 0 Z " fill="#FEFEFE" transform="translate(67,177)"/>
<path d="M0 0 C0.99 0 1.98 0 3 0 C3 0.66 3 1.32 3 2 C2.34 2 1.68 2 1 2 C0.34 3.98 -0.32 5.96 -1 8 C-1.66 8 -2.32 8 -3 8 C-3 6.68 -3 5.36 -3 4 C-2.34 4 -1.68 4 -1 4 C-0.67 2.68 -0.34 1.36 0 0 Z " fill="#F1F1F1" transform="translate(127,97)"/>
<path d="M0 0 C0.99 0 1.98 0 3 0 C3 1.32 3 2.64 3 4 C0.36 4.33 -2.28 4.66 -5 5 C-3.68 4.67 -2.36 4.34 -1 4 C-0.67 2.68 -0.34 1.36 0 0 Z " fill="#DDDDDD" transform="translate(111,88)"/>
<path d="M0 0 C1.32 0 2.64 0 4 0 C4 1.32 4 2.64 4 4 C2.35 4 0.7 4 -1 4 C-0.67 2.68 -0.34 1.36 0 0 Z " fill="#F3F3F3" transform="translate(245,198)"/>
<path d="M0 0 C1.32 0 2.64 0 4 0 C4 1.32 4 2.64 4 4 C2.35 4 0.7 4 -1 4 C-0.67 2.68 -0.34 1.36 0 0 Z " fill="#F3F3F3" transform="translate(9,198)"/>
<path d="M0 0 C0.33 0.66 0.66 1.32 1 2 C1.66 2 2.32 2 3 2 C3 3.32 3 4.64 3 6 C2.34 6 1.68 6 1 6 C1 7.65 1 9.3 1 11 C0.67 11 0.34 11 0 11 C0 7.37 0 3.74 0 0 Z " fill="#FEFEFE" transform="translate(174,103)"/>
<path d="M0 0 C0.99 0 1.98 0 3 0 C3 1.32 3 2.64 3 4 C3.99 4.33 4.98 4.66 6 5 C3.69 4.67 1.38 4.34 -1 4 C-0.67 2.68 -0.34 1.36 0 0 Z " fill="#E1E1E1" transform="translate(94,88)"/>
<path d="M0 0 C1.32 0 2.64 0 4 0 C4.33 1.32 4.66 2.64 5 4 C3.02 4 1.04 4 -1 4 C-0.67 2.68 -0.34 1.36 0 0 Z " fill="#FEFEFE" transform="translate(76,177)"/>
<path d="M0 0 C1.32 0 2.64 0 4 0 C4 1.32 4 2.64 4 4 C2.68 4.33 1.36 4.66 0 5 C0 3.35 0 1.7 0 0 Z " fill="#FEFEFE" transform="translate(219,177)"/>
<path d="M0 0 C1.32 0 2.64 0 4 0 C4 1.32 4 2.64 4 4 C2.35 4 0.7 4 -1 4 C-0.67 2.68 -0.34 1.36 0 0 Z " fill="#FEFEFE" transform="translate(211,177)"/>
<path d="M0 0 C1.32 0 2.64 0 4 0 C4.33 1.32 4.66 2.64 5 4 C3.35 4 1.7 4 0 4 C0 2.68 0 1.36 0 0 Z " fill="#FEFEFE" transform="translate(177,177)"/>
<path d="M0 0 C1.32 0 2.64 0 4 0 C4.33 1.32 4.66 2.64 5 4 C3.35 4 1.7 4 0 4 C0 2.68 0 1.36 0 0 Z " fill="#FEFEFE" transform="translate(160,177)"/>
<path d="M0 0 C1.32 0 2.64 0 4 0 C4 1.32 4 2.64 4 4 C2.35 4 0.7 4 -1 4 C-0.67 2.68 -0.34 1.36 0 0 Z " fill="#FEFEFE" transform="translate(152,177)"/>
<path d="M0 0 C1.32 0 2.64 0 4 0 C4 1.32 4 2.64 4 4 C2.35 4 0.7 4 -1 4 C-0.67 2.68 -0.34 1.36 0 0 Z " fill="#FEFEFE" transform="translate(135,177)"/>
<path d="M0 0 C1.32 0 2.64 0 4 0 C4.33 1.32 4.66 2.64 5 4 C3.35 4 1.7 4 0 4 C0 2.68 0 1.36 0 0 Z " fill="#FEFEFE" transform="translate(118,177)"/>
<path d="M0 0 C1.32 0 2.64 0 4 0 C4.33 1.32 4.66 2.64 5 4 C3.35 4 1.7 4 0 4 C0 2.68 0 1.36 0 0 Z " fill="#FEFEFE" transform="translate(101,177)"/>
<path d="M0 0 C1.32 0 2.64 0 4 0 C4 1.32 4 2.64 4 4 C2.35 4 0.7 4 -1 4 C-0.67 2.68 -0.34 1.36 0 0 Z " fill="#FEFEFE" transform="translate(93,177)"/>
<path d="M0 0 C1.32 0 2.64 0 4 0 C4 1.32 4 2.64 4 4 C2.35 4 0.7 4 -1 4 C-0.67 2.68 -0.34 1.36 0 0 Z " fill="#FEFEFE" transform="translate(34,177)"/>
<path d="M0 0 C1.32 0.33 2.64 0.66 4 1 C4 2.32 4 3.64 4 5 C2.68 5 1.36 5 0 5 C0 3.35 0 1.7 0 0 Z " fill="#FEFEFE" transform="translate(122,163)"/>
<path d="M0 0 C0 1.65 0 3.3 0 5 C-1.32 5 -2.64 5 -4 5 C-4 3.68 -4 2.36 -4 1 C-1 0 -1 0 0 0 Z " fill="#FEFEFE" transform="translate(185,113)"/>
<path d="M0 0 C0 1.65 0 3.3 0 5 C-1.32 5 -2.64 5 -4 5 C-4 3.68 -4 2.36 -4 1 C-1 0 -1 0 0 0 Z " fill="#F1F1F1" transform="translate(25,75)"/>
<path d="M0 0 C1.32 0 2.64 0 4 0 C3.67 1.65 3.34 3.3 3 5 C1.68 4.01 0.36 3.02 -1 2 C-0.67 1.34 -0.34 0.68 0 0 Z " fill="#EAEAEA" transform="translate(219,63)"/>
<path d="M0 0 C1.32 0 2.64 0 4 0 C4 1.32 4 2.64 4 4 C2.68 4.33 1.36 4.66 0 5 C0 3.35 0 1.7 0 0 Z " fill="#FEFEFE" transform="translate(139,4)"/>
</svg>
